<svg width="428" height="428" viewBox="0 0 428 428" fill="none" xmlns="http://www.w3.org/2000/svg">
<path d="M93.0229 334.977C108.733 350.687 127.031 363.025 147.4 371.638C168.495 380.561 190.906 385.083 214 385.083C237.094 385.083 259.498 380.561 280.6 371.638C300.976 363.018 319.267 350.687 334.977 334.977C350.687 319.267 363.025 300.969 371.638 280.6C378.44 264.523 382.682 247.677 384.314 230.357C384.825 224.95 385.084 219.5 385.084 214.007C385.084 190.913 380.561 168.509 371.638 147.407C363.018 127.031 350.687 108.74 334.977 93.03C319.267 77.32 300.969 64.9894 280.6 56.3687C259.505 47.446 237.094 42.9236 214 42.9236C190.906 42.9236 168.502 47.446 147.4 56.3687C127.024 64.9894 108.733 77.32 93.0229 93.03C77.313 108.74 64.9751 127.038 56.3616 147.407C47.4389 168.502 42.9165 190.913 42.9165 214.007C42.9165 219.5 43.1753 224.95 43.6858 230.357C45.3179 247.685 49.56 264.523 56.3616 280.6C64.9823 300.969 77.313 319.267 93.0229 334.977ZM324.595 321.403C321.388 321.453 318.182 321.525 314.975 321.625C295.979 322.237 277.055 323.818 258.297 326.349C252.437 324.02 246.527 321.812 240.567 319.756C239.265 319.31 237.964 318.872 236.663 318.433C256.658 314.874 276.818 312.494 297.015 311.25C309.482 310.488 321.971 310.165 334.431 310.273C331.325 314.141 328.046 317.858 324.595 321.403ZM188.339 366.102C179.33 364.585 170.587 362.291 162.182 359.279C182.379 358.689 202.633 359.2 222.822 360.846C232.09 361.608 241.343 362.608 250.561 363.859C245.513 365.088 240.373 366.073 235.145 366.792C219.608 365.901 203.985 365.671 188.339 366.102ZM223.944 350.608C202.568 347.682 180.991 346.006 159.357 345.568C150.801 345.395 142.245 345.417 133.682 345.632C128.843 342.67 124.184 339.449 119.719 335.991C138.916 335.545 158.17 336.106 177.36 337.688C198.283 339.413 219.141 342.347 239.769 346.574C251.826 349.048 263.812 351.974 275.661 355.375C273.115 356.489 270.527 357.539 267.91 358.517C253.386 355.253 238.712 352.628 223.944 350.608ZM241.465 339.413C220.823 333.891 199.814 329.657 178.604 326.637C157.394 323.617 135.975 321.82 114.485 321.252C110.681 321.151 106.885 321.093 103.074 321.072C99.9324 317.815 96.927 314.428 94.0798 310.905C108.726 311.092 123.379 311.797 137.988 313.055C149.14 314.011 160.256 315.32 171.342 316.916L175.498 317.52L179.647 318.189L183.795 318.857C185.176 319.087 186.549 319.346 187.929 319.591L192.064 320.331C193.444 320.576 194.81 320.863 196.191 321.129C198.937 321.661 201.698 322.179 204.43 322.776C215.402 325.069 226.295 327.737 237.072 330.814C247.857 333.87 258.541 337.307 269.053 341.232L272.993 342.713C274.309 343.195 275.596 343.749 276.904 344.259L280.809 345.827C282.11 346.351 283.39 346.927 284.684 347.473L288.423 349.062C286.409 350.176 284.368 351.248 282.304 352.269C268.902 347.38 255.263 343.109 241.465 339.413ZM308.842 335.552C304.938 338.608 300.876 341.477 296.684 344.151C296.425 344.008 296.173 343.871 295.914 343.727L292.118 341.678L288.272 339.737C286.985 339.097 285.705 338.435 284.411 337.817L280.514 335.969C280.197 335.818 279.874 335.667 279.557 335.516C289.329 335.272 299.092 335.279 308.842 335.552ZM59.7624 214C59.7624 128.951 128.951 59.7623 214 59.7623C299.049 59.7623 368.238 128.951 368.238 214C368.238 219.522 367.943 224.979 367.375 230.35C366.893 234.915 366.21 239.416 365.333 243.852C362.651 257.47 358.172 270.448 352.154 282.534C350.328 286.201 348.358 289.781 346.258 293.268C329.312 293.93 312.43 295.375 295.677 297.59C274.791 300.351 254.105 304.305 233.758 309.467C229.12 310.646 224.504 311.89 219.903 313.192C215.79 311.991 211.663 310.841 207.522 309.741C204.747 308.978 201.95 308.295 199.153 307.605C197.751 307.267 196.356 306.908 194.954 306.591L190.741 305.635C189.339 305.319 187.937 304.995 186.527 304.693L182.3 303.809L178.072 302.932L173.83 302.119C162.52 299.941 151.132 298.186 139.692 296.777C120.409 294.404 100.975 293.067 81.5047 292.895C79.4627 289.472 77.543 285.971 75.7599 282.39C69.9146 270.628 65.5287 258.009 62.8397 244.787C61.8763 240.049 61.1285 235.224 60.6108 230.343C60.0572 224.979 59.7624 219.522 59.7624 214Z" fill="#EDAD1D"/>
<path d="M341.081 198.599C331.433 192.294 321.633 189.705 311.948 190.899C309.662 191.179 307.39 191.668 305.125 192.358C308.849 176.505 311.847 161.075 314.45 146.544C314.457 146.523 314.457 146.494 314.464 146.472C315.234 141.303 315.536 133.034 314.069 125.32C312.25 115.736 308.101 109.243 302.076 106.561C301.997 106.525 301.918 106.497 301.832 106.468H301.825C301.796 106.461 301.767 106.453 301.738 106.446C301.681 106.432 301.623 106.41 301.566 106.403C301.559 106.403 301.559 106.403 301.551 106.396C287.006 103.441 272.655 121.926 267.975 131.352C261.353 144.912 254.501 159.464 248.015 174.822C246.311 172.334 244.406 170.105 242.292 168.128C235.181 161.449 225.741 157.746 214.23 157.135C213.482 157.099 212.814 157.588 212.634 158.314C212.454 159.04 212.806 159.788 213.482 160.112C222.347 164.296 225.072 174.743 225.849 182.386C228.703 182.652 233.47 184.04 238.568 189.59C236.087 188.921 233.693 188.08 231.292 187.714C230.098 187.534 228.912 187.462 227.747 187.563C227.208 187.613 226.669 187.692 226.129 187.793C226.129 187.8 226.129 187.807 226.129 187.814C218.99 189.166 211.138 194.235 202.64 202.985C202.395 203.237 202.144 203.495 201.899 203.754C201.461 204.214 201.022 204.682 200.584 205.156C197.621 202.302 194.638 200.26 191.654 199.045C191.654 199.038 191.654 199.03 191.661 199.023C191.194 198.836 190.733 198.664 190.259 198.527C189.245 198.225 188.174 198.074 187.074 198.017C184.874 197.909 182.587 198.225 180.258 198.376C184.277 195.507 189.31 194.709 192.79 194.544C194.825 187.843 199.138 178.812 207.91 176.655C208.572 176.497 209.025 175.886 208.989 175.21C208.96 174.534 208.449 173.974 207.781 173.873C197.427 172.342 188.346 173.931 180.811 178.597C178.676 179.92 176.67 181.48 174.772 183.277C171.774 168.488 168.315 154.345 164.879 141.123C162.398 131.827 152.857 112.622 139.196 112.622H139.189C139.124 112.622 139.053 112.629 138.988 112.637C138.959 112.637 138.93 112.637 138.909 112.644H138.902C138.822 112.651 138.743 112.665 138.664 112.687C138.657 112.687 138.65 112.687 138.643 112.687C132.689 114.01 127.75 119.1 124.356 127.412C121.646 134.055 120.409 141.511 120.165 146.271C120.165 146.3 120.165 146.321 120.165 146.35C119.863 159.709 119.748 173.931 120.193 188.663C118.403 187.714 116.57 186.923 114.693 186.297C106.288 183.486 97.0923 184.025 87.3644 187.893C86.7317 188.145 86.3722 188.806 86.4944 189.475C86.6166 190.144 87.199 190.625 87.8749 190.633C96.4668 190.712 102.571 197.779 106.166 203.675C112.809 202.762 118.166 205.89 118.166 205.89C115.858 206.235 113.557 206.407 111.429 206.975C110.365 207.263 109.358 207.637 108.424 208.14C107.532 208.629 106.684 209.233 105.828 209.887C99.5225 215.143 94.4033 225.23 90.5639 240.056C90.4057 240.653 90.6574 241.285 91.1822 241.609C91.7071 241.94 92.3829 241.889 92.8503 241.494C101.514 234.203 108.754 230.91 113.794 231.982C113.838 231.989 113.881 232.003 113.924 232.01C114.204 232.032 114.485 232.068 114.765 232.118C116.167 232.406 117.483 233.082 118.612 233.93C119.755 234.771 120.733 235.764 121.66 236.763C122.595 237.784 123.458 238.891 124.213 240.049C125.722 242.378 126.858 244.909 127.7 247.505C128.541 250.1 129.116 252.761 129.432 255.457C129.432 255.457 126.535 248.612 122.3 245.017C122.595 246.75 122.882 248.662 123.177 250.675C124.479 259.433 126.104 270.333 130.389 279.5C132.229 283.425 134.444 286.726 137.018 289.4C138.154 289.594 139.29 289.781 140.419 289.983C149.83 291.636 159.191 293.527 168.488 295.648L168.466 295.353C177.31 291.492 182.947 284.022 185.226 273.115C187.297 263.207 186.369 252.228 185.629 243.406C185.47 241.566 185.327 239.819 185.219 238.201C183.788 240.955 182.163 244.801 181.214 249.439C180.905 246.743 180.855 244.025 181.077 241.307C181.293 238.589 181.825 235.864 182.753 233.247C183.227 231.946 183.81 230.673 184.485 229.465C185.161 228.279 185.88 227.093 186.801 226.007C187.325 225.381 187.922 224.799 188.584 224.303C189.152 223.814 189.777 223.397 190.475 223.073C195.134 220.881 202.935 222.419 213.044 227.524C213.597 227.804 214.266 227.689 214.697 227.251C215.129 226.812 215.229 226.144 214.942 225.597C212.123 220.248 209.276 215.661 206.407 211.843C213.569 210.872 218.939 211.584 222.175 213.993C222.851 214.496 223.433 215.071 223.929 215.711C224.016 215.812 224.109 215.905 224.188 216.013C224.677 216.624 225.123 217.278 225.489 217.969C226.244 219.335 226.762 220.78 227.229 222.203C227.69 223.656 228.042 225.159 228.265 226.661C228.696 229.681 228.675 232.737 228.315 235.72C227.956 238.704 227.308 241.623 226.381 244.463C226.381 244.463 225.748 236.432 224.454 231.709C224.001 233.362 223.483 235.138 222.937 236.993C220.205 246.347 216.804 257.995 216.869 269.132C216.941 281.161 221.211 290.328 229.58 296.432L226.74 305.822C228.689 305.218 230.63 304.621 232.586 304.039C244.449 300.509 256.456 297.395 268.586 294.678C270.721 292.794 272.734 290.572 274.632 288.013C281.269 279.068 285.403 267.658 288.717 258.498C289.415 256.578 290.076 254.752 290.716 253.07C287.732 255.155 284.159 258.167 280.924 262.294C281.858 259.454 283.059 256.715 284.533 254.098C286 251.481 287.79 249 289.925 246.814C290.997 245.729 292.169 244.729 293.398 243.831C294.62 242.961 295.886 242.098 297.302 241.444C298 241.106 298.747 240.84 299.509 240.638C300.272 240.437 301.062 240.344 301.846 240.336C302.162 240.336 302.472 240.365 302.781 240.401C302.831 240.401 302.881 240.394 302.925 240.394C302.953 240.394 302.975 240.394 302.997 240.394C308.648 240.394 315.715 245.527 323.43 255.241C323.854 255.773 324.573 255.974 325.206 255.73C325.839 255.485 326.249 254.867 326.213 254.184C325.314 237.36 321.999 225.36 316.348 218.307C315.572 217.415 314.788 216.574 313.932 215.855C313.041 215.107 312.027 214.482 310.949 213.942C308.777 212.857 306.333 212.174 303.917 211.296C309.892 209.485 314.306 210.275 317.283 211.591C322.452 205.997 330.591 199.663 339.931 201.468C340.664 201.612 341.398 201.209 341.678 200.519C341.959 199.8 341.707 199.009 341.081 198.599ZM166.626 169.796C166.381 169.739 166.13 169.724 165.871 169.753L161.284 170.285C160.744 167.373 160.205 164.591 159.666 161.952L164.663 161.37C165.324 164.152 165.979 166.964 166.626 169.796ZM163.441 156.344L158.595 156.905C157.984 154.072 157.372 151.405 156.768 148.903L161.442 148.356C162.118 150.995 162.779 153.655 163.441 156.344ZM159.918 142.424C159.997 142.734 160.076 143.043 160.155 143.352L155.525 143.891C154.777 140.979 154.051 138.333 153.353 135.932L157.358 135.465C158.508 137.995 159.386 140.411 159.918 142.424ZM154.496 162.556C155.043 165.195 155.582 167.97 156.129 170.889L148.371 171.795L147.393 163.383L154.496 162.556ZM146.796 158.285L145.854 150.182L151.585 149.514C152.188 152.009 152.807 154.669 153.425 157.509L146.796 158.285ZM154.842 130.59L151.836 130.942C150.779 127.606 149.823 124.895 149.011 122.746C151.203 124.967 153.173 127.721 154.842 130.59ZM150.319 144.495L145.257 145.085L144.316 136.982L148.119 136.536C148.824 138.923 149.564 141.569 150.319 144.495ZM146.595 131.546L143.726 131.877L142.345 120.042C143.18 121.919 144.689 125.614 146.595 131.546ZM137.233 120.524L138.628 132.474L135.875 132.797C136.299 126.873 136.852 122.854 137.233 120.524ZM135.558 138.003L139.218 137.578L140.16 145.681L135.278 146.249C135.335 143.237 135.436 140.498 135.558 138.003ZM131.453 124.68C131.172 127.024 130.885 129.921 130.648 133.408L127.599 133.761C128.555 130.554 129.828 127.369 131.453 124.68ZM125.291 146.494C125.399 144.459 125.722 141.871 126.283 139.081L130.353 138.607C130.238 141.116 130.144 143.855 130.094 146.846L125.27 147.407C125.277 147.105 125.284 146.803 125.291 146.494ZM125.169 152.591L130.044 152.023C130.036 154.597 130.065 157.329 130.115 160.227L125.054 160.816C125.083 158.041 125.119 155.302 125.169 152.591ZM125.025 165.986L130.245 165.375C130.331 168.078 130.446 170.904 130.59 173.859L125.773 174.419C125.514 174.448 125.27 174.527 125.047 174.635C125.025 171.73 125.018 168.847 125.025 165.986ZM125.097 178.705C125.385 178.841 125.701 178.92 126.039 178.92C126.125 178.92 126.211 178.913 126.305 178.906L130.842 178.381C131.007 181.192 131.194 184.119 131.417 187.146L125.298 187.857C125.205 184.787 125.14 181.732 125.097 178.705ZM125.449 192.387L131.769 191.654C131.999 194.479 132.251 197.391 132.538 200.397L125.852 201.173C125.687 198.225 125.557 195.299 125.449 192.387ZM126.247 207.773C126.204 207.076 126.154 206.386 126.111 205.688L132.977 204.89C133.222 207.32 133.488 209.808 133.768 212.353C131.28 210.477 128.764 208.917 126.247 207.773ZM135.22 151.419L140.757 150.772L141.698 158.875L135.278 159.623C135.227 156.725 135.206 153.993 135.22 151.419ZM135.4 164.778L142.295 163.973L143.273 172.385L135.731 173.262C135.594 170.3 135.486 167.481 135.4 164.778ZM135.975 177.784L143.798 176.871L144.812 185.585L136.543 186.549C136.32 183.515 136.133 180.596 135.975 177.784ZM136.888 191.057L145.336 190.072L146.35 198.786L137.65 199.8C137.363 196.794 137.111 193.875 136.888 191.057ZM138.082 204.293L146.868 203.272L147.882 211.987L139.017 213.022C138.679 210.038 138.369 207.119 138.082 204.293ZM139.728 217.48L148.407 216.466L149.845 228.804C146.631 224.727 143.23 220.852 139.728 217.48ZM148.895 176.274L156.941 175.34C157.43 178.108 157.919 180.998 158.408 184.004L149.916 184.996L148.895 176.274ZM150.434 189.475L159.105 188.468C159.537 191.265 159.961 194.163 160.378 197.154L151.448 198.196L150.434 189.475ZM154.885 227.74L153.504 215.876L161.888 214.899C159.35 218.839 157.013 223.21 154.885 227.74ZM152.979 211.397L151.966 202.683L160.982 201.633C161.356 204.452 161.722 207.356 162.082 210.34L152.979 211.397ZM162.082 174.743L166.389 174.24C166.813 174.189 167.201 174.024 167.517 173.772C168.172 176.727 168.804 179.711 169.423 182.717L163.534 183.4C163.052 180.401 162.571 177.511 162.082 174.743ZM164.232 187.872L170.314 187.167C170.875 190.029 171.421 192.905 171.946 195.809L165.49 196.557C165.08 193.566 164.656 190.669 164.232 187.872ZM166.985 207.982C166.698 205.609 166.403 203.294 166.101 201.036L172.73 200.267C172.838 200.893 172.938 201.525 173.046 202.158C170.933 203.747 168.912 205.724 166.985 207.982ZM307.116 119.122C308.727 122.868 309.604 127.39 309.963 131.913L305.916 130.59C306.555 125.816 306.915 122.012 307.116 119.122ZM305.197 135.58L310.158 137.205C310.143 140.275 309.92 143.201 309.546 145.703C309.467 146.163 309.381 146.623 309.295 147.083L303.55 145.207C304.212 141.705 304.751 138.499 305.197 135.58ZM308.403 152.016C307.821 155.172 307.217 158.364 306.591 161.585L300.595 159.623C301.35 156.265 302.019 153.094 302.608 150.118L308.403 152.016ZM302.393 112.745C302.4 114.341 302.306 119.596 301.084 129.008L297.467 127.829L302.393 112.745ZM259.965 192.516C261.072 189.367 262.165 186.34 263.236 183.421L273.015 186.621L270.009 195.802L259.965 192.516ZM268.471 200.519L265.465 209.7L255.234 206.357C256.277 203.208 257.312 200.159 258.333 197.204L268.471 200.519ZM264.969 178.762C266.155 175.606 267.313 172.6 268.442 169.732L277.566 172.715L274.56 181.897L264.969 178.762ZM270.282 165.109C271.562 161.938 272.799 158.961 273.992 156.157L282.103 158.81L279.097 167.992L270.282 165.109ZM286.654 144.905L283.648 154.086L275.977 151.577C277.393 148.356 278.731 145.408 279.989 142.726L286.654 144.905ZM282.153 138.204C283.728 134.968 285.209 132.064 286.575 129.49L291.198 131L288.192 140.181L282.153 138.204ZM282.282 174.254L291.169 177.159C290.378 180.157 289.537 183.27 288.638 186.491L279.277 183.428L282.282 174.254ZM283.828 169.537L286.834 160.356L294.714 162.93C294.016 165.928 293.254 169.063 292.42 172.342L283.828 169.537ZM288.372 155.632L291.378 146.451L297.82 148.557C297.23 151.534 296.569 154.698 295.821 158.07L288.372 155.632ZM292.916 141.727L295.922 132.546L300.379 134.005C299.941 136.91 299.409 140.116 298.762 143.64L292.916 141.727ZM297.575 111.486L292.737 126.276L288.983 125.046C294.246 115.635 297.36 111.767 297.41 111.709C297.475 111.637 297.525 111.565 297.575 111.486ZM289.954 113.73C288.444 116.066 286.503 119.266 284.173 123.479L280.226 122.185C283.116 118.885 286.467 115.807 289.954 113.73ZM272.432 133.545C273.489 131.417 275.028 128.9 276.904 126.333L281.779 127.93C280.413 130.532 278.946 133.43 277.379 136.658L271.807 134.839C272.022 134.4 272.231 133.969 272.432 133.545ZM269.621 139.34L275.229 141.173C273.971 143.87 272.634 146.817 271.232 150.031L265.429 148.133C266.831 145.157 268.226 142.23 269.621 139.34ZM263.308 152.663C263.323 152.67 263.337 152.677 263.351 152.677L269.254 154.604C268.061 157.408 266.824 160.392 265.552 163.556L260.353 161.859C259.943 161.722 259.526 161.701 259.138 161.772C260.519 158.695 261.913 155.661 263.308 152.663ZM257.463 165.518C257.758 166.007 258.225 166.396 258.807 166.582L263.711 168.186C262.582 171.055 261.425 174.067 260.245 177.216L253.357 174.966C254.709 171.781 256.082 168.632 257.463 165.518ZM251.423 179.553C251.459 179.567 251.495 179.582 251.531 179.596L258.505 181.875C257.434 184.794 256.341 187.821 255.234 190.971L247.764 188.526C248.972 185.506 250.187 182.515 251.423 179.553ZM251.021 203.28C249.302 200.123 247.397 197.305 245.262 194.947C245.492 194.35 245.715 193.746 245.945 193.156L253.602 195.658C252.754 198.132 251.891 200.677 251.021 203.28ZM259.67 227.445C258.34 221.873 256.722 216.43 254.767 211.433L263.919 214.424L259.67 227.445ZM264.221 229.494L268.643 215.97L278.112 219.069C273.424 222.045 268.737 225.633 264.221 229.494ZM280.176 214.51L270.189 211.246L273.194 202.065L283.095 205.3C282.167 208.291 281.197 211.368 280.176 214.51ZM274.733 197.341L277.738 188.159L287.287 191.28C286.424 194.278 285.511 197.362 284.547 200.548L274.733 197.341ZM295.16 211.455C291.931 212.159 288.61 213.396 285.237 215.042C286.136 212.245 286.999 209.513 287.826 206.846L295.713 209.427C295.526 210.103 295.339 210.779 295.16 211.455ZM296.979 204.617L289.285 202.101C290.249 198.915 291.162 195.831 292.025 192.833L299.33 195.22C298.575 198.34 297.791 201.468 296.979 204.617ZM300.48 190.374L293.384 188.051C294.29 184.83 295.131 181.717 295.922 178.719L301.034 180.387C301.292 180.473 301.551 180.509 301.803 180.509C302.134 180.509 302.45 180.437 302.745 180.315C302.026 183.644 301.271 187.002 300.48 190.374ZM303.608 176.318C303.334 176.03 302.982 175.8 302.579 175.663L297.173 173.895C298.007 170.616 298.776 167.481 299.481 164.483L305.578 166.475C305.592 166.482 305.606 166.482 305.628 166.489C304.981 169.739 304.312 173.017 303.608 176.318Z" fill="#86B740"/>
</svg>
