<svg width="188" height="161" viewBox="0 0 188 161" fill="none" xmlns="http://www.w3.org/2000/svg">
<path fill-rule="evenodd" clip-rule="evenodd" d="M88.0454 1.34937C118.134 1.34937 145.631 18.2881 158.9 45.0643C172.206 71.9161 168.854 103.925 150.28 127.503C131.956 150.764 101.99 161.792 72.8283 156.118L71.9448 155.941L78.9249 122.126C95.5798 125.561 112.748 119.338 123.145 106.141C133.477 93.0248 135.334 75.293 127.949 60.3907C120.601 45.5627 105.356 36.068 88.5549 35.8796L88.0454 35.8767V1.34937Z" fill="#147AD6"/>
<path fill-rule="evenodd" clip-rule="evenodd" d="M10.4607 69.0522L44.7149 73.4823C41.8243 95.817 56.4249 116.626 78.3047 121.553L78.97 121.698L71.8998 155.494C32.3891 147.234 5.76368 110.241 10.3133 70.2645L10.4607 69.0522Z" fill="#79D2DE"/>
<path fill-rule="evenodd" clip-rule="evenodd" d="M87.5238 1.34937V35.8767C65.8192 35.8767 47.4098 51.9842 44.298 73.6714L44.2084 74.3303L9.95026 69.9307C14.9373 31.1262 47.5149 1.93804 86.3452 1.35816L87.5238 1.34937Z" fill="#EC6666"/>
</svg>
