<svg width="504" height="467" viewBox="0 0 504 467" fill="none" xmlns="http://www.w3.org/2000/svg">
<path d="M262.736 366.073C285.003 369.682 307.075 374.664 328.792 381.112C324.982 382.823 321.088 384.407 317.117 385.866C298.719 382.187 280.185 379.543 261.61 377.864C237.26 375.676 212.834 375.127 188.501 376.186C181.355 376.499 174.209 376.954 167.08 377.543C157.089 372.483 147.742 366.56 139.174 359.884C155.591 358.895 172.016 358.636 188.399 359.083C213.308 359.766 238.14 362.088 262.736 366.073ZM352.541 293.86C331.375 297.202 310.403 301.713 289.676 307.337V300.834C289.676 300.387 290.024 300.002 290.498 299.932C297.669 298.896 300.522 291.796 298.033 285.246L288.491 264.59C287.983 263.248 285.934 263.248 285.426 264.59L275.884 285.246C273.395 291.804 276.096 298.896 283.267 299.932C283.741 300.002 284.08 300.387 284.08 300.834V308.891C282.344 309.377 280.609 309.856 278.873 310.366C272.024 312.366 265.208 314.492 258.426 316.744C258.037 316.61 257.639 316.485 257.241 316.351V304.176C257.241 303.533 257.74 302.968 258.426 302.866C268.84 301.36 272.972 291.067 269.365 281.551L255.522 251.583C254.786 249.637 251.814 249.637 251.077 251.583L237.234 281.551C233.628 291.059 237.539 301.36 247.945 302.866C248.63 302.968 249.13 303.525 249.13 304.176V313.716C247.377 313.159 245.633 312.609 243.881 312.076C231.045 308.216 218.1 304.858 205.07 301.979C192.04 299.092 178.916 296.778 165.742 294.88C140.266 291.279 114.57 289.427 88.8486 289.655C91.5156 297.908 94.97 305.878 99.1525 313.48L105.892 313.441L115.544 313.519C118.761 313.566 121.978 313.692 125.196 313.77C128.413 313.865 131.63 314.037 134.848 314.163C136.456 314.218 138.065 314.32 139.674 314.422L144.5 314.72L146.913 314.869L149.326 315.065L154.152 315.449C157.369 315.685 160.578 316.022 163.795 316.32C176.647 317.567 189.457 319.317 202.233 321.435C215.001 323.561 227.726 326.15 240.35 329.241C252.991 332.293 265.547 335.815 277.967 339.902C281.066 340.946 284.182 341.934 287.255 343.072C290.337 344.186 293.436 345.253 296.492 346.445C299.557 347.614 302.639 348.736 305.678 350.007C308.726 351.246 311.783 352.454 314.797 353.796C326.371 358.77 337.758 364.316 348.883 370.506C351.881 368.662 354.802 366.732 357.655 364.724C356.596 364.002 355.53 363.296 354.454 362.614C345.446 356.73 336.217 351.285 326.828 346.233C340.451 345.825 354.065 345.927 367.645 346.531C371.32 346.696 374.994 346.9 378.66 347.143C384.841 341.008 390.446 334.419 395.399 327.444C386.153 327.327 376.916 327.444 367.688 327.782C345.793 328.598 323.983 330.692 302.351 334.058C301.767 333.791 301.183 333.524 300.598 333.257C297.525 331.814 294.401 330.543 291.302 329.209C288.203 327.852 285.062 326.644 281.93 325.381C280.245 324.714 278.56 324.055 276.867 323.412C278.297 323.098 279.72 322.792 281.151 322.494C305.331 317.434 329.715 313.927 354.141 312.005C371.371 310.656 388.626 310.099 405.821 310.413C409.606 303.109 412.73 295.484 415.126 287.599C394.146 288.439 373.259 290.596 352.541 293.86Z" fill="#86B740"/>
<path d="M180.542 224.612C181.744 231.366 176.808 237.744 169.518 238.866C162.229 239.98 155.345 235.406 154.134 228.652C152.932 221.897 157.868 215.519 165.158 214.397C172.448 213.283 179.34 217.857 180.542 224.612ZM229.682 218.838C230.41 224.031 230.385 229.319 229.589 234.496C229.301 236.363 227.345 237.619 225.347 237.25L225.237 237.226C223.374 236.881 221.571 237.956 221.071 239.658C220.149 242.851 218.895 245.934 217.346 248.868C216.508 250.469 217.118 252.391 218.794 253.262L218.836 253.285C220.623 254.211 221.232 256.353 220.115 257.953C217.041 262.346 213.333 266.363 209.117 269.854C207.593 271.117 205.222 270.897 203.952 269.407L203.893 269.336C202.707 267.955 200.582 267.689 199.016 268.693C196.197 270.505 193.174 272.09 189.982 273.408C188.238 274.129 187.383 275.957 188.06 277.613L188.086 277.675C188.805 279.448 187.789 281.449 185.825 282.006C180.423 283.551 174.793 284.414 169.137 284.571C167.088 284.626 165.429 283.041 165.488 281.151V281.088C165.547 279.323 164.1 277.84 162.195 277.683C158.757 277.393 155.387 276.812 152.119 275.957C150.291 275.479 148.369 276.365 147.734 278.036L147.7 278.123C147.022 279.911 144.855 280.829 142.975 280.1C137.76 278.076 132.841 275.393 128.396 272.16C126.779 270.984 126.601 268.779 127.973 267.359L128.006 267.328C129.285 266.002 129.183 264.002 127.829 262.738C125.331 260.424 123.07 257.882 121.081 255.144C120.014 253.685 117.931 253.207 116.289 254.093L116.187 254.148C114.426 255.097 112.14 254.509 111.209 252.822C108.635 248.155 106.764 243.173 105.621 238.042C105.206 236.183 106.611 234.386 108.643 234.128L108.686 234.12C110.582 233.877 111.911 232.292 111.751 230.527C111.454 227.279 111.497 224.07 111.852 220.924C112.047 219.175 110.777 217.575 108.906 217.284L108.787 217.269C106.781 216.947 105.435 215.135 105.892 213.291C107.153 208.184 109.168 203.242 111.844 198.637C112.817 196.966 115.137 196.424 116.873 197.428L116.924 197.46C118.549 198.401 120.657 197.978 121.758 196.526C123.722 193.937 125.949 191.521 128.396 189.301C129.759 188.069 129.878 186.092 128.641 184.751L128.565 184.672C127.236 183.237 127.456 181.048 129.082 179.895C133.578 176.718 138.539 174.105 143.78 172.16C145.676 171.453 147.827 172.411 148.47 174.207L148.496 174.278C149.097 175.957 151.019 176.874 152.864 176.419C154.592 175.988 156.361 175.635 158.165 175.36C159.892 175.094 161.619 174.905 163.329 174.795C165.234 174.67 166.724 173.226 166.707 171.453V171.375C166.69 169.484 168.384 167.931 170.424 168.025C176.071 168.284 181.676 169.265 187.036 170.912C188.975 171.508 189.948 173.517 189.195 175.274L189.152 175.368C188.45 177.008 189.262 178.844 190.981 179.597C194.114 180.97 197.102 182.617 199.905 184.5C201.454 185.543 203.596 185.308 204.807 183.935L204.841 183.896C206.136 182.421 208.515 182.24 210.022 183.535C214.163 187.097 217.795 191.168 220.767 195.624C221.842 197.232 221.198 199.35 219.412 200.253L219.31 200.308C217.642 201.147 216.999 203.038 217.795 204.638C219.209 207.478 220.352 210.459 221.207 213.581C221.673 215.299 223.484 216.398 225.364 216.053L225.406 216.045C227.464 215.684 229.419 216.955 229.682 218.838ZM194.376 222.493C191.912 208.655 177.807 199.296 162.88 201.578C147.945 203.861 137.845 216.931 140.308 230.762C142.772 244.601 156.878 253.96 171.804 251.677C186.731 249.394 196.84 236.332 194.376 222.493ZM350.162 203.689C344.608 204.536 340.84 209.4 341.763 214.554C342.686 219.708 347.927 223.192 353.489 222.336C359.052 221.481 362.811 216.625 361.888 211.471C360.965 206.317 355.716 202.842 350.162 203.689ZM399.353 207.078C399.903 211.04 399.886 215.064 399.285 219.018C399.065 220.446 397.575 221.395 396.051 221.113L395.966 221.097C394.544 220.838 393.172 221.654 392.791 222.956C392.088 225.388 391.132 227.742 389.955 229.978C389.311 231.194 389.777 232.661 391.055 233.327L391.089 233.343C392.452 234.049 392.918 235.681 392.063 236.897C389.726 240.247 386.898 243.306 383.681 245.966C382.521 246.923 380.718 246.758 379.744 245.628L379.702 245.573C378.804 244.522 377.179 244.318 375.985 245.087C373.834 246.468 371.531 247.676 369.093 248.68C367.764 249.229 367.112 250.626 367.628 251.889L367.645 251.936C368.196 253.285 367.417 254.815 365.927 255.239C361.803 256.415 357.519 257.074 353.21 257.192C351.652 257.239 350.382 256.031 350.433 254.58V254.533C350.475 253.183 349.374 252.061 347.927 251.936C345.302 251.716 342.736 251.277 340.247 250.618C338.85 250.249 337.386 250.932 336.903 252.203L336.878 252.265C336.361 253.63 334.71 254.329 333.279 253.772C329.308 252.226 325.558 250.186 322.163 247.723C320.935 246.829 320.8 245.142 321.841 244.067L321.866 244.044C322.84 243.032 322.764 241.502 321.731 240.545C319.826 238.78 318.107 236.842 316.583 234.755C315.77 233.641 314.179 233.28 312.926 233.955L312.849 233.994C311.503 234.716 309.768 234.269 309.056 232.982C307.101 229.428 305.661 225.624 304.798 221.709C304.484 220.289 305.551 218.924 307.101 218.72L307.134 218.712C308.582 218.524 309.59 217.323 309.471 215.974C309.251 213.495 309.276 211.047 309.547 208.655C309.7 207.321 308.726 206.105 307.304 205.878L307.211 205.862C305.678 205.619 304.654 204.238 305.001 202.834C305.966 198.943 307.498 195.177 309.539 191.662C310.284 190.391 312.045 189.976 313.374 190.744L313.408 190.768C314.644 191.482 316.253 191.16 317.091 190.054C318.59 188.085 320.283 186.234 322.154 184.547C323.187 183.613 323.28 182.099 322.34 181.079L322.29 181.017C321.282 179.918 321.443 178.255 322.679 177.377C326.108 174.952 329.884 172.96 333.889 171.477C335.337 170.944 336.971 171.665 337.462 173.038L337.479 173.093C337.936 174.372 339.401 175.078 340.806 174.725C342.127 174.395 343.473 174.129 344.845 173.917C346.165 173.713 347.478 173.572 348.782 173.485C350.238 173.391 351.372 172.285 351.355 170.936V170.881C351.339 169.437 352.634 168.253 354.192 168.323C358.493 168.519 362.768 169.265 366.858 170.528C368.331 170.983 369.076 172.513 368.509 173.854L368.475 173.925C367.942 175.172 368.56 176.576 369.872 177.149C372.26 178.2 374.537 179.448 376.671 180.883C377.848 181.676 379.482 181.503 380.404 180.452L380.43 180.42C381.42 179.299 383.232 179.157 384.375 180.146C387.533 182.86 390.302 185.967 392.562 189.364C393.384 190.588 392.893 192.204 391.53 192.894L391.453 192.933C390.183 193.577 389.692 195.02 390.293 196.236C391.369 198.401 392.249 200.676 392.893 203.053C393.248 204.363 394.628 205.195 396.059 204.936L396.093 204.928C397.659 204.669 399.149 205.642 399.353 207.078ZM372.437 209.863C370.558 199.319 359.805 192.18 348.426 193.914C337.047 195.655 329.342 205.619 331.213 216.162C333.093 226.714 343.846 233.845 355.225 232.111C366.612 230.378 374.317 220.414 372.437 209.863ZM381.116 124.673C343.278 118.641 305.052 119.951 275.825 122.877L272.608 104.833C271.922 100.981 267.993 98.369 263.828 99.0045L262.321 99.232L259.832 85.2443L250.095 78.7799L247.487 82.1455C245.98 84.0989 246.463 86.8133 248.571 88.2097L251.407 90.0925L253.287 100.636C249.409 101.476 246.835 104.975 247.496 108.67L250.586 126.023C247.157 126.541 244.024 127.051 241.188 127.529L227.658 84.1303C227.802 83.9734 227.811 83.9577 227.955 83.8008C240.528 84.5225 238.479 68.1342 228.006 69.7346C200.252 73.9788 172.49 78.2308 144.736 82.475C140.8 83.079 136.863 83.6831 132.926 84.2793C121.546 86.0209 126.923 104.943 141.096 95.9292C142.459 96.5098 142.222 96.4078 143.585 96.9961L147.92 140.795C124.112 147.824 105.308 164.66 96.9595 186.877C96.2737 188.689 97.2643 190.682 99.1862 191.411C100.99 192.094 103.055 191.443 104.038 189.882C115.23 172.23 133.933 160.29 155.853 156.94C196.188 150.766 234.423 176.161 241.086 213.534C242.196 219.779 242.373 226.149 241.603 232.48L241.628 232.488C245.599 233.28 249.57 230.982 250.459 227.31L250.476 227.247L294.511 220.509C289.541 192.062 310.335 165.225 341.043 160.525C360.703 157.521 379.642 164.314 392.097 177.047L391.53 157.168C384.426 155.426 377.077 154.343 369.931 154.5C366.663 154.571 366.214 149.88 369.491 149.801C376.798 149.636 384.189 150.633 391.394 152.304L391.165 144.325C381.657 142.113 371.506 140.772 361.896 141.674C358.645 141.98 357.807 137.328 361.067 137.022C370.973 136.088 381.226 137.296 391.022 139.461L390.895 135.131C390.742 129.961 386.627 125.552 381.116 124.673ZM232.171 129.184C231.274 129.357 219.683 151.606 219.683 151.606C202.386 139.822 180.787 134.974 159.392 138.245C159.231 138.269 159.079 138.3 158.918 138.324L154.659 95.3095C175.961 92.0538 197.263 88.7902 218.557 85.5345L232.171 129.184ZM317.201 151.621C317.65 155.552 317.904 158.894 317.557 159.521C316.642 161.2 283.03 176.168 285.121 211.448L253.38 216.351C253.38 216.351 249.011 183.582 225.584 158.289L234.127 144.012C234.127 144.012 273.928 137.069 315.161 136.833C315.161 136.833 315.576 139.438 316.067 142.882L299.777 144.082C299.777 144.082 296.018 144.937 296.314 148.993C296.61 153.049 301.614 152.202 301.614 152.202L317.201 151.621ZM192.801 388.142C211.14 394.096 230.969 397.352 251.678 397.352C269.043 397.352 285.79 395.061 301.563 390.809C265.665 386.321 229.233 385.451 192.801 388.142ZM210.666 333.524C186.181 329.665 161.475 327.421 136.702 326.817C126.991 326.581 117.271 326.597 107.543 326.872C112.817 334.364 118.837 341.409 125.509 347.944C129.251 347.747 133.002 347.583 136.752 347.465C160.832 346.704 184.995 347.536 209.057 349.968C233.119 352.4 257.097 356.44 280.778 362.19C298.863 366.583 316.778 371.981 334.405 378.476C337.894 376.758 341.306 374.938 344.633 373.016C324.618 363.971 304.095 356.369 283.267 350.077C259.417 342.876 235.151 337.392 210.666 333.524Z" fill="#B7775C"/>
</svg>
