<svg width="48" height="30" viewBox="0 0 48 30" fill="none" xmlns="http://www.w3.org/2000/svg">
<path fill-rule="evenodd" clip-rule="evenodd" d="M2.7111 8.82481C6.35276 3.79609 14.8853 0.514739 24.3577 0.500189C34.5667 0.469273 43.6443 4.2298 46.8267 9.80829C50.009 15.3868 46.5691 21.5088 38.3123 24.9617C30.0554 28.4146 18.8677 28.4094 10.6205 24.9489L3.26667 29.1779C2.51899 29.6074 1.30774 29.6074 0.560063 29.1779C-0.186688 28.7479 -0.186688 28.0514 0.560063 27.6214L7.68405 23.5246C1.02964 19.6478 -0.930571 13.8535 2.7111 8.82481ZM6.12537 18.369C9.183 22.6063 16.3802 25.366 24.3577 25.3601V25.3014C35.1849 25.2934 43.9743 20.2651 44.0444 14.0388C44.0548 9.45113 39.2558 5.31218 31.8876 3.55382C24.5193 1.79545 16.0345 2.76438 10.3936 6.00834C4.75262 9.25231 3.06775 14.1317 6.12537 18.369Z" fill="black"/>
</svg>
