<svg width="49" height="30" viewBox="0 0 49 30" fill="none" xmlns="http://www.w3.org/2000/svg">
<path fill-rule="evenodd" clip-rule="evenodd" d="M3.2111 8.82481C6.85276 3.79609 15.3853 0.514739 24.8577 0.500189C35.0667 0.469273 44.1443 4.2298 47.3267 9.80829C50.509 15.3868 47.0691 21.5088 38.8123 24.9617C30.5554 28.4146 19.3677 28.4094 11.1205 24.9489L3.76667 29.1779C3.01899 29.6074 1.80774 29.6074 1.06006 29.1779C0.313312 28.7479 0.313312 28.0514 1.06006 27.6214L8.18405 23.5246C1.52964 19.6478 -0.430571 13.8535 3.2111 8.82481ZM6.62537 18.369C9.683 22.6063 16.8802 25.366 24.8577 25.3601V25.3014C35.6849 25.2934 44.4743 20.2651 44.5444 14.0388C44.5548 9.45113 39.7558 5.31218 32.3876 3.55382C25.0193 1.79545 16.5345 2.76438 10.8936 6.00834C5.25262 9.25231 3.56775 14.1317 6.62537 18.369Z" fill="black"/>
</svg>
