<svg width="83" height="57" viewBox="0 0 83 57" fill="none" xmlns="http://www.w3.org/2000/svg">
<path fill-rule="evenodd" clip-rule="evenodd" d="M63.0656 11.1558C64.799 14.739 62.9636 18.677 58.5165 20.9167C63.0143 23.1392 64.8963 27.0907 63.1734 30.6949C61.4506 34.2991 56.5173 36.7313 50.9657 36.7134C48.1831 36.7103 45.4802 36.0786 43.2782 34.9167V41.9167C43.2782 46.0315 39.0801 49.5903 33.193 50.4662C27.3058 51.3421 21.3205 49.2983 18.8142 45.5564C16.308 41.8145 17.958 37.3856 22.7782 34.9167C19.5128 33.2817 17.5836 30.6819 17.5836 27.9167C17.5836 25.1515 19.5128 22.5518 22.7782 20.9167C18.3311 18.677 16.4958 14.739 18.2291 11.1558C19.9625 7.57274 24.8718 5.15641 30.3974 5.16672H50.8974C56.4229 5.15641 61.3323 7.57274 63.0656 11.1558ZM50.8974 19.1667C55.1163 19.1411 58.5167 16.7981 58.5165 13.9167H58.5849C58.5849 11.0172 55.143 8.66672 50.8974 8.66672H43.2099V19.1667H50.8974ZM22.7098 13.9167C22.7098 11.0172 26.1517 8.66672 30.3974 8.66672H38.0849V19.1667H30.3974C26.1517 19.1667 22.7098 16.8162 22.7098 13.9167ZM30.3974 22.6667C26.1517 22.6667 22.7098 25.0172 22.7098 27.9167C22.7098 30.8162 26.1517 33.1667 30.3974 33.1667H38.0849V22.6667H30.3974ZM38.0849 41.9167C38.0849 44.8162 34.643 47.1667 30.3974 47.1667C26.1517 47.1667 22.7098 44.8162 22.7098 41.9167C22.7098 39.0172 26.1517 36.6667 30.3974 36.6667H38.0849V41.9167ZM43.2099 27.9167C43.2099 30.8162 46.6517 33.1667 50.8974 33.1667C55.143 33.1667 58.5849 30.8162 58.5849 27.9167C58.5849 25.0172 55.143 22.6667 50.8974 22.6667C46.6517 22.6667 43.2099 25.0172 43.2099 27.9167Z" fill="black"/>
</svg>
