<svg width="83" height="57" viewBox="0 0 83 57" fill="none" xmlns="http://www.w3.org/2000/svg">
<path fill-rule="evenodd" clip-rule="evenodd" d="M63.0659 11.1558C64.7992 14.7389 62.9639 18.6769 58.5168 20.9167C63.0146 23.1391 64.8965 27.0907 63.1737 30.6949C61.4509 34.299 56.5175 36.7312 50.9659 36.7133C48.1833 36.7102 45.4804 36.0785 43.2784 34.9167V41.9167C43.2784 46.0314 39.0803 49.5903 33.1932 50.4661C27.3061 51.342 21.3207 49.2982 18.8145 45.5563C16.3082 41.8144 17.9583 37.3855 22.7784 34.9167C19.5131 33.2816 17.5839 30.6819 17.5839 27.9167C17.5839 25.1515 19.5131 22.5517 22.7784 20.9167C18.3313 18.6769 16.496 14.7389 18.2293 11.1558C19.9627 7.57268 24.872 5.15635 30.3976 5.16666H50.8976C56.4232 5.15635 61.3325 7.57268 63.0659 11.1558ZM50.8976 19.1667C55.1166 19.141 58.5169 16.798 58.5168 13.9167H58.5851C58.5851 11.0172 55.1433 8.66666 50.8976 8.66666H43.2101V19.1667H50.8976ZM22.7101 13.9167C22.7101 11.0172 26.1519 8.66666 30.3976 8.66666H38.0851V19.1667H30.3976C26.1519 19.1667 22.7101 16.8162 22.7101 13.9167ZM30.3976 22.6667C26.1519 22.6667 22.7101 25.0172 22.7101 27.9167C22.7101 30.8162 26.1519 33.1667 30.3976 33.1667H38.0851V22.6667H30.3976ZM38.0851 41.9167C38.0851 44.8162 34.6433 47.1667 30.3976 47.1667C26.1519 47.1667 22.7101 44.8162 22.7101 41.9167C22.7101 39.0172 26.1519 36.6667 30.3976 36.6667H38.0851V41.9167ZM43.2101 27.9167C43.2101 30.8162 46.6519 33.1667 50.8976 33.1667C55.1433 33.1667 58.5851 30.8162 58.5851 27.9167C58.5851 25.0172 55.1433 22.6667 50.8976 22.6667C46.6519 22.6667 43.2101 25.0172 43.2101 27.9167Z" fill="black"/>
</svg>
