<svg width="82" height="57" viewBox="0 0 82 57" fill="none" xmlns="http://www.w3.org/2000/svg">
<path fill-rule="evenodd" clip-rule="evenodd" d="M62.5656 11.1558C64.299 14.7389 62.4636 18.6769 58.0165 20.9167C62.5143 23.1391 64.3963 27.0907 62.6734 30.6949C60.9506 34.299 56.0173 36.7312 50.4657 36.7133C47.6831 36.7102 44.9802 36.0785 42.7782 34.9167V41.9167C42.7782 46.0314 38.5801 49.5903 32.693 50.4661C26.8058 51.342 20.8205 49.2982 18.3142 45.5563C15.808 41.8144 17.458 37.3855 22.2782 34.9167C19.0128 33.2816 17.0836 30.6819 17.0836 27.9167C17.0836 25.1515 19.0128 22.5517 22.2782 20.9167C17.8311 18.6769 15.9958 14.7389 17.7291 11.1558C19.4625 7.57268 24.3718 5.15635 29.8974 5.16666H50.3974C55.9229 5.15635 60.8323 7.57268 62.5656 11.1558ZM50.3974 19.1667C54.6163 19.141 58.0167 16.798 58.0165 13.9167H58.0849C58.0849 11.0172 54.643 8.66666 50.3974 8.66666H42.7099V19.1667H50.3974ZM22.2098 13.9167C22.2098 11.0172 25.6517 8.66666 29.8974 8.66666H37.5849V19.1667H29.8974C25.6517 19.1667 22.2098 16.8162 22.2098 13.9167ZM29.8974 22.6667C25.6517 22.6667 22.2098 25.0172 22.2098 27.9167C22.2098 30.8162 25.6517 33.1667 29.8974 33.1667H37.5849V22.6667H29.8974ZM37.5849 41.9167C37.5849 44.8162 34.143 47.1667 29.8974 47.1667C25.6517 47.1667 22.2098 44.8162 22.2098 41.9167C22.2098 39.0172 25.6517 36.6667 29.8974 36.6667H37.5849V41.9167ZM42.7099 27.9167C42.7099 30.8162 46.1517 33.1667 50.3974 33.1667C54.643 33.1667 58.0849 30.8162 58.0849 27.9167C58.0849 25.0172 54.643 22.6667 50.3974 22.6667C46.1517 22.6667 42.7099 25.0172 42.7099 27.9167Z" fill="black"/>
</svg>
