<svg width="82" height="57" viewBox="0 0 82 57" fill="none" xmlns="http://www.w3.org/2000/svg">
<path fill-rule="evenodd" clip-rule="evenodd" d="M62.5657 11.1558C64.2991 14.739 62.4637 18.677 58.0166 20.9167C62.5144 23.1392 64.3963 27.0907 62.6735 30.6949C60.9507 34.2991 56.0174 36.7313 50.4658 36.7134C47.6832 36.7103 44.9802 36.0786 42.7783 34.9167V41.9167C42.7783 46.0315 38.5802 49.5903 32.693 50.4662C26.8059 51.3421 20.8206 49.2983 18.3143 45.5564C15.8081 41.8145 17.4581 37.3856 22.2783 34.9167C19.0129 33.2817 17.0837 30.6819 17.0837 27.9167C17.0837 25.1515 19.0129 22.5518 22.2783 20.9167C17.8312 18.677 15.9958 14.739 17.7292 11.1558C19.4625 7.57274 24.3719 5.15641 29.8975 5.16672H50.3975C55.923 5.15641 60.8324 7.57274 62.5657 11.1558ZM50.3975 19.1667C54.6164 19.1411 58.0168 16.7981 58.0166 13.9167H58.085C58.085 11.0172 54.6431 8.66672 50.3975 8.66672H42.71V19.1667H50.3975ZM22.2099 13.9167C22.2099 11.0172 25.6518 8.66672 29.8974 8.66672H37.5849V19.1667H29.8974C25.6518 19.1667 22.2099 16.8162 22.2099 13.9167ZM29.8974 22.6667C25.6518 22.6667 22.2099 25.0172 22.2099 27.9167C22.2099 30.8162 25.6518 33.1667 29.8974 33.1667H37.5849V22.6667H29.8974ZM37.5849 41.9167C37.5849 44.8162 34.1431 47.1667 29.8974 47.1667C25.6518 47.1667 22.2099 44.8162 22.2099 41.9167C22.2099 39.0172 25.6518 36.6667 29.8974 36.6667H37.5849V41.9167ZM42.71 27.9167C42.71 30.8162 46.1518 33.1667 50.3975 33.1667C54.6431 33.1667 58.085 30.8162 58.085 27.9167C58.085 25.0172 54.6431 22.6667 50.3975 22.6667C46.1518 22.6667 42.71 25.0172 42.71 27.9167Z" fill="black"/>
</svg>
