<svg width="83" height="57" viewBox="0 0 83 57" fill="none" xmlns="http://www.w3.org/2000/svg">
<path fill-rule="evenodd" clip-rule="evenodd" d="M63.0657 11.1559C64.7991 14.739 62.9638 18.6771 58.5167 20.9168C63.0144 23.1393 64.8964 27.0908 63.1736 30.695C61.4508 34.2992 56.5174 36.7313 50.9658 36.7134C48.1832 36.7103 45.4803 36.0786 43.2783 34.9168V41.9168C43.2783 46.0316 39.0802 49.5904 33.1931 50.4663C27.3059 51.3421 21.3206 49.2984 18.8144 45.5565C16.3081 41.8145 17.9581 37.3856 22.7783 34.9168C19.513 33.2817 17.5837 30.682 17.5837 27.9168C17.5837 25.1516 19.513 22.5518 22.7783 20.9168C18.3312 18.6771 16.4959 14.739 18.2292 11.1559C19.9626 7.5728 24.8719 5.15647 30.3975 5.16678H50.8975C56.4231 5.15647 61.3324 7.5728 63.0657 11.1559ZM50.8975 19.1668C55.1165 19.1412 58.5168 16.7981 58.5166 13.9168H58.585C58.585 11.0173 55.1432 8.66678 50.8975 8.66678H43.21V19.1668H50.8975ZM22.71 13.9168C22.71 11.0173 26.1518 8.66678 30.3975 8.66678H38.085V19.1668H30.3975C26.1518 19.1668 22.71 16.8163 22.71 13.9168ZM30.3975 22.6668C26.1518 22.6668 22.71 25.0173 22.71 27.9168C22.71 30.8163 26.1518 33.1668 30.3975 33.1668H38.085V22.6668H30.3975ZM38.085 41.9168C38.085 44.8163 34.6432 47.1668 30.3975 47.1668C26.1518 47.1668 22.71 44.8163 22.71 41.9168C22.71 39.0173 26.1518 36.6668 30.3975 36.6668H38.085V41.9168ZM43.21 27.9168C43.21 30.8163 46.6518 33.1668 50.8975 33.1668C55.1432 33.1668 58.585 30.8163 58.585 27.9168C58.585 25.0173 55.1432 22.6668 50.8975 22.6668C46.6518 22.6668 43.21 25.0173 43.21 27.9168Z" fill="black"/>
</svg>
