<svg width="83" height="57" viewBox="0 0 83 57" fill="none" xmlns="http://www.w3.org/2000/svg">
<path fill-rule="evenodd" clip-rule="evenodd" d="M63.0656 11.1559C64.799 14.739 62.9636 18.6771 58.5165 20.9168C63.0143 23.1393 64.8963 27.0908 63.1734 30.695C61.4506 34.2992 56.5173 36.7313 50.9657 36.7134C48.1831 36.7103 45.4802 36.0786 43.2782 34.9168V41.9168C43.2782 46.0316 39.0801 49.5904 33.193 50.4663C27.3058 51.3421 21.3205 49.2984 18.8142 45.5565C16.308 41.8145 17.958 37.3856 22.7782 34.9168C19.5128 33.2817 17.5836 30.682 17.5836 27.9168C17.5836 25.1516 19.5128 22.5518 22.7782 20.9168C18.3311 18.6771 16.4958 14.739 18.2291 11.1559C19.9625 7.5728 24.8718 5.15647 30.3974 5.16678H50.8974C56.4229 5.15647 61.3323 7.5728 63.0656 11.1559ZM50.8974 19.1668C55.1163 19.1412 58.5167 16.7981 58.5165 13.9168H58.5849C58.5849 11.0173 55.143 8.66678 50.8974 8.66678H43.2099V19.1668H50.8974ZM22.7098 13.9168C22.7098 11.0173 26.1517 8.66678 30.3974 8.66678H38.0849V19.1668H30.3974C26.1517 19.1668 22.7098 16.8163 22.7098 13.9168ZM30.3974 22.6668C26.1517 22.6668 22.7098 25.0173 22.7098 27.9168C22.7098 30.8163 26.1517 33.1668 30.3974 33.1668H38.0849V22.6668H30.3974ZM38.0849 41.9168C38.0849 44.8163 34.643 47.1668 30.3974 47.1668C26.1517 47.1668 22.7098 44.8163 22.7098 41.9168C22.7098 39.0173 26.1517 36.6668 30.3974 36.6668H38.0849V41.9168ZM43.2099 27.9168C43.2099 30.8163 46.6517 33.1668 50.8974 33.1668C55.143 33.1668 58.5849 30.8163 58.5849 27.9168C58.5849 25.0173 55.143 22.6668 50.8974 22.6668C46.6517 22.6668 43.2099 25.0173 43.2099 27.9168Z" fill="black"/>
</svg>
