<svg width="83" height="57" viewBox="0 0 83 57" fill="none" xmlns="http://www.w3.org/2000/svg">
<path fill-rule="evenodd" clip-rule="evenodd" d="M63.0657 11.1558C64.7991 14.7389 62.9637 18.677 58.5166 20.9167C63.0144 23.1392 64.8964 27.0907 63.1735 30.6949C61.4507 34.2991 56.5174 36.7312 50.9658 36.7134C48.1832 36.7102 45.4802 36.0785 43.2783 34.9167V41.9167C43.2783 46.0315 39.0802 49.5903 33.193 50.4662C27.3059 51.342 21.3206 49.2983 18.8143 45.5564C16.3081 41.8145 17.9581 37.3856 22.7783 34.9167C19.5129 33.2816 17.5837 30.6819 17.5837 27.9167C17.5837 25.1515 19.5129 22.5518 22.7783 20.9167C18.3312 18.677 16.4958 14.7389 18.2292 11.1558C19.9625 7.57271 24.8719 5.15638 30.3975 5.16669H50.8975C56.423 5.15638 61.3324 7.57271 63.0657 11.1558ZM50.8974 19.1667C55.1164 19.1411 58.5168 16.7981 58.5166 13.9167H58.5849C58.5849 11.0172 55.1431 8.66669 50.8974 8.66669H43.21V19.1667H50.8974ZM22.7099 13.9167C22.7099 11.0172 26.1518 8.66669 30.3974 8.66669H38.0849V19.1667H30.3974C26.1518 19.1667 22.7099 16.8162 22.7099 13.9167ZM30.3974 22.6667C26.1518 22.6667 22.7099 25.0172 22.7099 27.9167C22.7099 30.8162 26.1518 33.1667 30.3974 33.1667H38.0849V22.6667H30.3974ZM38.0849 41.9167C38.0849 44.8162 34.6431 47.1667 30.3974 47.1667C26.1518 47.1667 22.7099 44.8162 22.7099 41.9167C22.7099 39.0172 26.1518 36.6667 30.3974 36.6667H38.0849V41.9167ZM43.21 27.9167C43.21 30.8162 46.6518 33.1667 50.8974 33.1667C55.1431 33.1667 58.5849 30.8162 58.5849 27.9167C58.5849 25.0172 55.1431 22.6667 50.8974 22.6667C46.6518 22.6667 43.21 25.0172 43.21 27.9167Z" fill="black"/>
</svg>
