<svg width="640" height="114" viewBox="0 0 640 114" fill="none" xmlns="http://www.w3.org/2000/svg">
<g clip-path="url(#clip0_299_262)">
<path fill-rule="evenodd" clip-rule="evenodd" d="M8.0249 3.80129L9.82317 3.05981L164.145 55.8236L320.483 66.069L474.962 77.8936L475.339 77.9456L631.884 110.294L630.597 111.173L474.23 78.8606L319.717 67.0351L162.925 56.762L8.0249 3.80129Z" fill="#79D2DE"/>
<path fill-rule="evenodd" clip-rule="evenodd" d="M202.911 6.42212C204.568 6.42212 205.911 5.07897 205.911 3.42212C205.911 1.76526 204.568 0.422119 202.911 0.422119C201.255 0.422119 199.911 1.76526 199.911 3.42212C199.911 5.07897 201.255 6.42212 202.911 6.42212Z" fill="#79D2DE"/>
<path fill-rule="evenodd" clip-rule="evenodd" d="M260.911 58.4221C262.568 58.4221 263.911 57.079 263.911 55.4221C263.911 53.7653 262.568 52.4221 260.911 52.4221C259.255 52.4221 257.911 53.7653 257.911 55.4221C257.911 57.079 259.255 58.4221 260.911 58.4221Z" fill="#79D2DE"/>
<path fill-rule="evenodd" clip-rule="evenodd" d="M318.911 69.4221C320.568 69.4221 321.911 68.079 321.911 66.4221C321.911 64.7653 320.568 63.4221 318.911 63.4221C317.255 63.4221 315.911 64.7653 315.911 66.4221C315.911 68.079 317.255 69.4221 318.911 69.4221Z" fill="#79D2DE"/>
<path fill-rule="evenodd" clip-rule="evenodd" d="M375.911 81.4221C377.568 81.4221 378.911 80.079 378.911 78.4221C378.911 76.7653 377.568 75.4221 375.911 75.4221C374.255 75.4221 372.911 76.7653 372.911 78.4221C372.911 80.079 374.255 81.4221 375.911 81.4221Z" fill="#79D2DE"/>
<path fill-rule="evenodd" clip-rule="evenodd" d="M435.911 113.422C437.568 113.422 438.911 112.079 438.911 110.422C438.911 108.765 437.568 107.422 435.911 107.422C434.255 107.422 432.911 108.765 432.911 110.422C432.911 112.079 434.255 113.422 435.911 113.422Z" fill="#79D2DE"/>
</g>
<defs>
<clipPath id="clip0_299_262">
<rect width="638.342" height="113.32" fill="white" transform="translate(0.911377 0.422119)"/>
</clipPath>
</defs>
</svg>
