<svg width="636" height="132" viewBox="0 0 636 132" fill="none" xmlns="http://www.w3.org/2000/svg">
<g clip-path="url(#clip0_299_269)">
<path fill-rule="evenodd" clip-rule="evenodd" d="M627.301 2.93066L628.521 3.82274L472.273 33.9501L316.793 118.662L160.29 39.3604L6.7217 130.003L4.46814 129.465L160.124 37.5912L316.713 116.938L470.457 33.1736L627.301 2.93066Z" fill="#EC6666"/>
<path fill-rule="evenodd" clip-rule="evenodd" d="M202.253 131.368C203.91 131.368 205.253 130.025 205.253 128.368C205.253 126.711 203.91 125.368 202.253 125.368C200.596 125.368 199.253 126.711 199.253 128.368C199.253 130.025 200.596 131.368 202.253 131.368Z" fill="#EC6666"/>
<path fill-rule="evenodd" clip-rule="evenodd" d="M259.253 42.3682C260.91 42.3682 262.253 41.025 262.253 39.3682C262.253 37.7113 260.91 36.3682 259.253 36.3682C257.596 36.3682 256.253 37.7113 256.253 39.3682C256.253 41.025 257.596 42.3682 259.253 42.3682Z" fill="#EC6666"/>
<path fill-rule="evenodd" clip-rule="evenodd" d="M317.253 119.368C318.91 119.368 320.253 118.025 320.253 116.368C320.253 114.711 318.91 113.368 317.253 113.368C315.596 113.368 314.253 114.711 314.253 116.368C314.253 118.025 315.596 119.368 317.253 119.368Z" fill="#EC6666"/>
<path fill-rule="evenodd" clip-rule="evenodd" d="M375.253 37.3682C376.91 37.3682 378.253 36.025 378.253 34.3682C378.253 32.7113 376.91 31.3682 375.253 31.3682C373.596 31.3682 372.253 32.7113 372.253 34.3682C372.253 36.025 373.596 37.3682 375.253 37.3682Z" fill="#EC6666"/>
<path fill-rule="evenodd" clip-rule="evenodd" d="M434.253 6.36816C435.91 6.36816 437.253 5.02502 437.253 3.36816C437.253 1.71131 435.91 0.368164 434.253 0.368164C432.596 0.368164 431.253 1.71131 431.253 3.36816C431.253 5.02502 432.596 6.36816 434.253 6.36816Z" fill="#EC6666"/>
</g>
<defs>
<clipPath id="clip0_299_269">
<rect width="635.671" height="131.371" fill="white" transform="translate(0.253143 0.368164)"/>
</clipPath>
</defs>
</svg>
