<svg width="640" height="72" viewBox="0 0 640 72" fill="none" xmlns="http://www.w3.org/2000/svg">
<g clip-path="url(#clip0_299_276)">
<path fill-rule="evenodd" clip-rule="evenodd" d="M8.92404 3.02539L162.712 3.02639L163.675 3.02807L320.704 9.1431L474.769 69.0218L630.362 17.9543L632.119 18.7093L474.617 70.4053L319.46 10.1024L163.537 4.02822H8.92404V3.02539Z" fill="#147AD6"/>
<path fill-rule="evenodd" clip-rule="evenodd" d="M202.911 6.51831C204.568 6.51831 205.911 5.17516 205.911 3.51831C205.911 1.86146 204.568 0.518311 202.911 0.518311C201.255 0.518311 199.911 1.86146 199.911 3.51831C199.911 5.17516 201.255 6.51831 202.911 6.51831Z" fill="#147AD6"/>
<path fill-rule="evenodd" clip-rule="evenodd" d="M259.911 6.51831C261.568 6.51831 262.911 5.17516 262.911 3.51831C262.911 1.86146 261.568 0.518311 259.911 0.518311C258.255 0.518311 256.911 1.86146 256.911 3.51831C256.911 5.17516 258.255 6.51831 259.911 6.51831Z" fill="#147AD6"/>
<path fill-rule="evenodd" clip-rule="evenodd" d="M318.911 12.5183C320.568 12.5183 321.911 11.1752 321.911 9.51831C321.911 7.86146 320.568 6.51831 318.911 6.51831C317.255 6.51831 315.911 7.86146 315.911 9.51831C315.911 11.1752 317.255 12.5183 318.911 12.5183Z" fill="#147AD6"/>
<path fill-rule="evenodd" clip-rule="evenodd" d="M377.911 71.5183C379.568 71.5183 380.911 70.1752 380.911 68.5183C380.911 66.8615 379.568 65.5183 377.911 65.5183C376.255 65.5183 374.911 66.8615 374.911 68.5183C374.911 70.1752 376.255 71.5183 377.911 71.5183Z" fill="#147AD6"/>
<path fill-rule="evenodd" clip-rule="evenodd" d="M435.911 21.5183C437.568 21.5183 438.911 20.1752 438.911 18.5183C438.911 16.8615 437.568 15.5183 435.911 15.5183C434.255 15.5183 432.911 16.8615 432.911 18.5183C432.911 20.1752 434.255 21.5183 435.911 21.5183Z" fill="#147AD6"/>
</g>
<defs>
<clipPath id="clip0_299_276">
<rect width="638.342" height="71.2011" fill="white" transform="translate(0.911377 0.518311)"/>
</clipPath>
</defs>
</svg>
