<svg width="75" height="75" viewBox="0 0 75 75" fill="none" xmlns="http://www.w3.org/2000/svg">
<g filter="url(#filter0_d_299_174)">
<path fill-rule="evenodd" clip-rule="evenodd" d="M37.6254 57.2065C48.8324 57.2065 57.9174 48.3179 57.9174 37.3532C57.9174 26.3886 48.8324 17.5 37.6254 17.5C26.4184 17.5 17.3333 26.3886 17.3333 37.3532C17.3333 48.3179 26.4184 57.2065 37.6254 57.2065Z" fill="white"/>
<path fill-rule="evenodd" clip-rule="evenodd" d="M37.6254 57.2065C48.8324 57.2065 57.9174 48.3179 57.9174 37.3532C57.9174 26.3886 48.8324 17.5 37.6254 17.5C26.4184 17.5 17.3333 26.3886 17.3333 37.3532C17.3333 48.3179 26.4184 57.2065 37.6254 57.2065Z" fill="url(#paint0_linear_299_174)"/>
</g>
<defs>
<filter id="filter0_d_299_174" x="0.333313" y="0.5" width="74.5841" height="73.7065" filterUnits="userSpaceOnUse" color-interpolation-filters="sRGB">
<feFlood flood-opacity="0" result="BackgroundImageFix"/>
<feColorMatrix in="SourceAlpha" type="matrix" values="0 0 0 0 0 0 0 0 0 0 0 0 0 0 0 0 0 0 127 0" result="hardAlpha"/>
<feOffset/>
<feGaussianBlur stdDeviation="8.5"/>
<feColorMatrix type="matrix" values="0 0 0 0 0 0 0 0 0 0 0 0 0 0 0 0 0 0 0.163352 0"/>
<feBlend mode="normal" in2="BackgroundImageFix" result="effect1_dropShadow_299_174"/>
<feBlend mode="normal" in="SourceGraphic" in2="effect1_dropShadow_299_174" result="shape"/>
</filter>
<linearGradient id="paint0_linear_299_174" x1="37.6254" y1="17.5" x2="37.6254" y2="57.2065" gradientUnits="userSpaceOnUse">
<stop stop-color="white"/>
<stop offset="1" stop-color="white" stop-opacity="0"/>
</linearGradient>
</defs>
</svg>
