<svg width="68" height="86" viewBox="0 0 68 86" fill="none" xmlns="http://www.w3.org/2000/svg">
<path d="M51 74.3542H42.5C41.9364 74.3542 41.3958 74.0711 40.9975 73.5669C40.5988 73.0631 40.375 72.3794 40.375 71.6667C40.375 70.9539 40.5988 70.2703 40.9975 69.7661C41.3958 69.2623 41.9364 68.9792 42.5 68.9792H51C51.8412 69.0716 52.6785 68.7509 53.3378 68.0837C53.9974 67.4168 54.4283 66.454 54.5417 65.3958V20.7116C54.4283 19.6532 53.9974 18.6906 53.3378 18.0235C52.6785 17.3563 51.8412 17.0357 51 17.1282H42.5C41.9364 17.1282 41.3958 16.8451 40.9975 16.3411C40.5988 15.8371 40.375 15.1535 40.375 14.4407C40.375 13.728 40.5988 13.0444 40.9975 12.5404C41.3958 12.0364 41.9364 11.7532 42.5 11.7532H51C51.9826 11.7004 52.9635 11.8931 53.8872 12.3203C54.8105 12.7474 55.6586 13.4007 56.3822 14.2428C57.1058 15.0848 57.6912 16.0991 58.1046 17.2275C58.5182 18.356 58.7517 19.5764 58.7917 20.8191V65.2883C58.7517 66.531 58.5182 67.7515 58.1046 68.8799C57.6912 70.0083 57.1058 71.0224 56.3822 71.8645C55.6586 72.7066 54.8105 73.3598 53.8872 73.7869C52.9635 74.2144 51.9826 74.4068 51 74.3542Z" fill="black"/>
<path d="M31.1667 60.0208C30.8876 60.0223 30.6108 59.9535 30.353 59.818C30.0952 59.6829 29.8614 59.4837 29.6651 59.2325C29.2673 58.7283 29.0437 58.0453 29.0437 57.3333C29.0437 56.621 29.2673 55.938 29.6651 55.4342L39.4967 43L29.6651 30.5657C29.2896 30.0562 29.0854 29.3824 29.095 28.6862C29.1049 27.99 29.3279 27.3256 29.7172 26.8333C30.1065 26.3408 30.6318 26.0588 31.1823 26.0465C31.7328 26.0342 32.2655 26.2927 32.6684 26.7674L44.0017 41.1008C44.3998 41.6047 44.6234 42.2876 44.6234 43C44.6234 43.712 44.3998 44.395 44.0017 44.8992L32.6684 59.2325C32.4723 59.4837 32.2383 59.6829 31.9805 59.818C31.7226 59.9535 31.4461 60.0223 31.1667 60.0208Z" fill="black"/>
<path d="M42.5 45.6875H11.3333C10.7697 45.6875 10.2292 45.4044 9.83071 44.9002C9.4322 44.3964 9.20831 43.7127 9.20831 43C9.20831 42.2873 9.4322 41.6036 9.83071 41.0998C10.2292 40.5956 10.7697 40.3125 11.3333 40.3125H42.5C43.0635 40.3125 43.6041 40.5956 44.0025 41.0998C44.4011 41.6036 44.625 42.2873 44.625 43C44.625 43.7127 44.4011 44.3964 44.0025 44.9002C43.6041 45.4044 43.0635 45.6875 42.5 45.6875Z" fill="black"/>
</svg>
