<svg width="491" height="491" viewBox="0 0 491 491" fill="none" xmlns="http://www.w3.org/2000/svg">
<path d="M203.302 150.076C202.469 149.474 201.991 148.41 201.999 147.198C202.015 144.171 202.04 141.3 202.56 138.413C203.343 134.025 206.799 128.895 212.557 130.421C215.138 131.279 216.879 133.093 217.902 136.318C219.032 140.319 219.254 144.344 219.246 148.369C219.246 149.449 219.131 152.699 219.131 153.318C218.784 155.017 218.182 155.479 216.763 155.314C216.054 155.322 208.779 153.409 203.302 150.076ZM271.787 148.377C272.505 148.534 273.09 148.534 273.808 148.534C277.858 147.767 282.98 146.381 285.669 141.688C286.956 139.568 286.312 136.665 285.694 135.122C285.075 133.588 284.209 132.194 283.128 131.246C280.225 128.416 275.944 126.907 271.457 127.13C270.525 127.262 269.931 128.037 269.841 129.274C269.865 129.736 270.484 142.48 270.476 146.2C270.476 147.594 270.839 148.055 271.787 148.377ZM142.01 138.372C144.501 137.869 146.785 136.722 149.095 135.287C149.458 135.007 149.714 134.726 150.076 134.446C151.322 133.06 151.66 131.188 150.942 129.678C150.431 128.54 149.681 127.699 148.518 127.542C146.67 127.196 144.69 127.13 142.826 127.072C140.962 127.014 139.956 127.864 139.56 129.893C139.337 131.279 139.255 132.532 139.057 133.918C139.057 133.918 139.057 133.918 139.172 133.91C139.016 134.669 138.966 135.419 138.809 136.178C138.727 137.803 139.057 138.405 140.698 138.578C141.053 138.554 141.531 138.529 142.01 138.372ZM163.719 206.816C161.937 207.203 159.793 207.294 157.492 207.146C154.126 206.931 150.423 206.197 147.033 205.1C146.95 205.075 146.86 205.051 146.777 205.018C146.53 204.935 146.282 204.844 146.035 204.754C142.876 203.648 140.038 202.238 138.1 200.638C134.562 197.718 126.858 197.157 121.274 196.86C120.902 196.844 120.54 196.819 120.185 196.802C118.412 196.712 116.877 196.637 115.69 196.497C115.343 196.456 114.997 196.398 114.667 196.316C112.324 195.755 110.312 194.312 108.357 192.909C106.452 191.54 104.637 190.237 102.674 189.857C102.393 189.8 102.113 189.767 101.824 189.75C98.7807 189.602 95.2835 188.068 92.1987 186.715C89.8562 185.692 87.6457 184.719 86.227 184.62C82.1688 184.331 78.8613 180.108 78.7211 179.927L78.5809 179.687C78.1355 178.681 77.5003 178.541 75.6527 178.368C74.2011 178.227 72.3864 178.054 70.4811 176.899C66.5879 174.541 62.9917 157.945 63.6681 153.45C63.8413 152.295 64.3197 151.61 65.095 151.413C66.2333 151.132 68.0561 151.462 70.3656 151.891C73.1535 152.402 76.9725 153.112 78.4736 152.221C79.6696 151.511 82.3503 150.258 85.4516 148.798C89.7654 146.777 96.2898 143.717 97.1311 142.752C97.3126 142.513 97.7662 141.308 98.2116 140.154C98.5086 139.387 98.8467 138.504 99.2262 137.531C98.822 137.275 98.4178 137.019 98.0054 136.747C95.8691 135.279 93.5926 133.605 91.3903 131.543C90.3016 130.503 89.2046 129.39 88.2065 128.12C87.1838 126.882 86.26 125.464 85.5589 123.847C85.3939 123.435 85.2042 123.039 85.097 122.585C84.9815 122.14 84.8248 121.711 84.7918 121.216L84.701 120.498C84.6845 120.292 84.6763 120.094 84.6598 119.888L84.5691 118.708C84.4206 117.108 84.2061 115.467 84.0412 113.776C83.9587 112.926 83.8845 112.068 83.8515 111.178C83.835 110.279 83.8185 109.371 84.0494 108.307C84.1814 107.779 84.3629 107.153 84.965 106.526C85.2867 106.229 85.7073 105.973 86.1445 105.882C86.3672 105.816 86.5569 105.825 86.7631 105.808H87.1013C87.9591 105.808 88.8252 105.833 89.683 105.858C93.1225 105.99 96.5702 106.237 99.9767 106.93C100.826 107.103 101.676 107.326 102.525 107.59C102.946 107.738 103.375 107.887 103.796 108.06L104.431 108.357L104.983 108.629C105.33 108.794 105.693 108.959 106.056 109.124C106.056 109.066 106.056 109.008 106.047 108.951C106.039 108.802 106.039 108.654 106.031 108.505C106.023 108.299 106.023 108.093 106.023 107.895C106.023 107.755 106.023 107.614 106.023 107.474C106.023 107.276 106.023 107.087 106.031 106.897C106.031 106.765 106.031 106.641 106.039 106.509C106.047 106.311 106.056 106.13 106.064 105.94C106.072 105.833 106.072 105.717 106.08 105.61C106.097 105.404 106.113 105.206 106.13 105.016C106.138 104.934 106.138 104.851 106.146 104.777C106.171 104.513 106.204 104.257 106.237 104.01C106.245 103.977 106.245 103.952 106.254 103.919C106.287 103.705 106.32 103.507 106.361 103.309C106.377 103.235 106.394 103.169 106.41 103.094C106.443 102.954 106.476 102.814 106.509 102.682C106.534 102.6 106.551 102.534 106.575 102.459C106.608 102.344 106.641 102.228 106.683 102.121C106.707 102.047 106.732 101.981 106.765 101.907C106.806 101.808 106.848 101.709 106.889 101.618C106.922 101.552 106.946 101.486 106.979 101.428C107.021 101.346 107.07 101.263 107.111 101.181C107.144 101.123 107.177 101.065 107.219 101.016C107.268 100.942 107.318 100.876 107.367 100.81C107.408 100.76 107.441 100.719 107.483 100.669C107.54 100.603 107.598 100.554 107.656 100.496C107.697 100.463 107.73 100.422 107.771 100.389C107.837 100.331 107.912 100.29 107.978 100.249C108.011 100.224 108.043 100.199 108.085 100.183C108.192 100.125 108.307 100.076 108.431 100.043C109.668 99.6714 110.848 100.463 111.945 102.41C112.069 102.624 112.209 102.839 112.366 103.045C112.415 103.111 112.473 103.185 112.531 103.251C112.646 103.391 112.753 103.532 112.877 103.672C112.943 103.746 113.017 103.829 113.091 103.903C113.215 104.035 113.339 104.158 113.471 104.29C113.553 104.365 113.628 104.447 113.71 104.521C113.85 104.653 113.999 104.785 114.147 104.909C114.221 104.975 114.304 105.041 114.378 105.107C114.568 105.264 114.774 105.429 114.972 105.577C115.013 105.61 115.046 105.635 115.087 105.668C115.327 105.849 115.574 106.031 115.822 106.204C115.904 106.262 115.995 106.319 116.077 106.377C116.242 106.493 116.407 106.6 116.58 106.715C116.679 106.781 116.787 106.847 116.886 106.913C117.042 107.012 117.191 107.103 117.339 107.202C117.438 107.268 117.537 107.326 117.644 107.384C117.801 107.474 117.95 107.565 118.098 107.656C118.189 107.705 118.28 107.763 118.37 107.812C118.543 107.911 118.708 108.002 118.873 108.093C118.931 108.126 118.997 108.159 119.055 108.192C119.269 108.307 119.476 108.423 119.673 108.522C119.748 108.563 119.814 108.596 119.88 108.629C120.003 108.695 120.135 108.761 120.251 108.819C120.325 108.852 120.391 108.885 120.457 108.918C120.556 108.967 120.655 109.017 120.746 109.066C120.803 109.091 120.853 109.116 120.902 109.14C120.935 109.157 120.96 109.165 120.985 109.182C121.744 108.678 122.527 108.192 123.336 107.713C123.459 107.639 123.591 107.565 123.715 107.491C123.996 107.326 124.276 107.161 124.565 107.004C125.027 106.748 125.497 106.493 125.959 106.254C125.975 106.245 125.983 106.237 126 106.229C134.512 101.841 141.556 99.4157 149.623 97.3949C150.431 97.197 151.248 96.999 152.081 96.801C153.739 96.4134 155.454 96.034 157.236 95.6463C159.908 95.0772 162.746 94.4998 165.806 93.8729C176.058 91.7861 188.818 89.1879 206.527 84.47C208.375 83.9751 210.181 83.5297 211.955 83.1172C215.51 82.3007 218.924 81.6408 222.24 81.1212C229.688 79.9499 236.567 79.488 243.108 79.488C248.923 79.488 254.474 79.851 259.918 80.4201C261.279 80.5603 262.632 80.717 263.984 80.882C268.711 81.4594 273.387 82.1522 278.122 82.8533C289.867 84.5937 302.017 86.4 316.097 86.4825C338.804 86.6145 355.886 91.6872 369.644 103.309C370.411 103.952 371.162 104.62 371.904 105.305C376.366 109.421 380.474 114.279 384.309 119.929C386.314 122.882 388.236 126.049 390.1 129.447C390.982 130.223 393.3 131.955 395.197 132.128C398.133 132.392 399.519 132.029 402.191 130.817C405.169 129.464 407.85 127.567 410.134 125.167C410.629 124.639 411.091 124.103 411.512 123.567C411.207 123.542 410.91 123.501 410.613 123.459C406.786 122.857 403.676 120.927 401.845 118.04C400.723 116.283 400.121 114.296 400.105 112.283C400.195 109.866 400.93 107.903 402.406 106.039C403.891 104.332 405.829 103.152 408.056 102.6C410.201 102.063 412.568 102.22 414.712 103.028C416.675 103.763 418.482 105.016 419.925 106.658C421.237 108.085 422.268 109.973 422.903 112.11C423.249 113.273 423.455 114.51 423.53 115.788C423.794 115.681 424.066 115.566 424.321 115.45C426.4 114.51 427.827 113.512 428.808 112.324L428.932 112.159C429.287 111.706 429.881 110.947 430.805 110.906C431.192 110.889 431.737 110.996 432.256 111.565C433.436 112.86 432.231 114.386 431.778 114.964L431.662 115.112C430.45 116.72 428.718 118.131 426.375 119.442C425.328 120.028 424.222 120.572 423.084 121.084C422.919 121.834 422.721 122.577 422.474 123.294C421.006 127.542 418.185 131.724 414.316 135.37C410.877 138.628 406.703 141.234 402.241 142.892C400.657 143.478 398.95 143.964 396.979 144.402C397.919 152.444 394.57 162.3 394.182 163.397C394.166 163.488 394.133 163.661 394.092 163.9C393.984 164.478 393.811 165.476 393.605 166.762C393.209 169.22 392.698 172.751 392.343 176.636C392.294 177.18 392.244 177.733 392.203 178.293C391.873 182.335 391.502 186.913 388.895 193.148C386.792 198.172 383.245 204.275 377.092 212.029C377.826 217.341 380.746 222.743 382.511 226.001L382.8 226.537C382.882 226.694 382.957 226.859 383.006 227.04C383.122 227.403 383.179 227.816 383.196 228.269V228.278C383.204 228.665 383.179 229.094 383.13 229.548C382.858 231.973 381.736 235.297 380.226 239.19C379.855 240.155 379.459 241.153 379.047 242.184C378.321 244.007 377.447 246.201 377.183 247.174C377.142 247.348 377.109 247.48 377.109 247.57C377.076 248.478 376.639 249.748 376.028 251.521C374.824 255.027 373.001 260.322 373.001 266.607C373.001 275.523 371.533 276.967 370.263 277.231C369.281 277.429 368.506 276.827 367.937 276.06L366.155 279.45L365.71 279.59C365.206 279.755 363.944 279.936 362.353 280.085C362.179 280.101 361.99 280.118 361.808 280.134C360.142 280.274 358.179 280.373 356.348 280.365C353.7 280.365 351.316 280.151 350.442 279.557C349.873 279.169 349.766 278.658 349.749 278.394C349.675 277.132 351.267 273.841 353.411 270.641C354.558 268.925 355.869 267.234 357.164 265.906C357.164 265.172 357.305 263.86 358.047 262.062C358.641 260.619 358.773 255.423 358.88 250.837C358.938 248.42 358.996 245.921 359.119 243.661C357.717 242.646 353.816 239.685 349.65 235.322C348.694 234.315 347.712 233.235 346.755 232.08C346.739 232.27 346.73 232.46 346.714 232.649C346.533 234.777 346.219 237.243 345.642 238.868C345.435 239.462 345.188 239.941 344.908 240.254C344.404 240.815 343.357 243.223 342.26 246.028C342.136 246.341 342.012 246.655 341.889 246.976C341.641 247.611 341.402 248.263 341.155 248.915C340.676 250.21 340.223 251.48 339.827 252.61L339.719 252.923L339.538 253.072C339.365 253.328 338.169 255.48 338.523 263.91C338.771 269.857 338.128 272.604 336.362 273.115C335.439 273.379 334.515 272.975 333.616 271.911L330.968 275.812H330.358C316.031 275.812 316.031 274.971 316.031 273.808C316.031 272.711 317.622 266.459 322.101 262.747C322.134 262.516 322.192 262.203 322.25 261.823C322.514 260.182 322.984 257.328 323.495 254.68C323.693 253.666 323.776 252.173 323.759 250.465C323.734 245.78 322.992 239.487 321.928 237.112C321.829 236.897 321.73 236.716 321.631 236.567C321.186 235.932 320.551 235.148 319.742 234.159C317.276 231.14 313.21 226.158 309.35 218.454C304.31 219.279 291.624 221.209 289.24 220.104C287.129 219.122 287.451 217.192 287.599 216.268C287.599 216.26 287.599 216.252 287.599 216.244C286.271 216.169 282.617 215.963 277.841 215.625C267.35 214.874 251.472 213.497 243.24 211.542C242.77 218.454 240.032 228.649 238.514 234.307C238.143 235.676 237.846 236.798 237.697 237.441C237.673 237.532 237.656 237.615 237.639 237.689C237.582 237.969 237.508 238.291 237.425 238.646C236.691 241.937 235.314 248.049 235.693 257.848C235.982 265.329 235.817 266.624 234.497 267.053C233.408 267.407 232.682 266.615 231.437 264.784L229.828 274.294L229.268 274.443L229.119 274.484C228.443 274.666 214.784 275.598 211.534 274.377C211.352 274.311 211.204 274.237 211.088 274.154C210.717 273.89 210.503 273.511 210.478 273.098C210.371 271.35 212.87 264.199 215.031 261.238C215.097 259.926 215.353 255.456 215.798 252.981C216.219 250.655 216.541 246.787 214.883 239.306C213.769 242.192 212.227 246.176 211.385 248.321C211.262 248.626 211.154 248.898 211.072 249.113C210.841 249.69 210.569 250.317 210.272 251.01C209.571 252.618 208.721 254.598 207.995 256.891C207.517 258.408 207.096 260.066 206.808 261.864C206.436 264.248 206.412 266.789 206.404 268.826C206.395 270.715 206.379 272.076 206.148 273.024C206.008 273.593 205.785 274.014 205.438 274.319C205.076 274.633 204.614 274.765 204.135 274.699C203.121 274.55 202.337 273.651 201.768 272.571L199.112 281.355L198.485 281.52C198.122 281.611 197.512 281.701 196.712 281.776C196.077 281.833 195.326 281.891 194.501 281.932C193.05 282.007 191.375 282.048 189.668 282.048C188.546 282.048 187.424 282.031 186.344 281.99C183.647 281.883 181.246 281.635 180.075 281.182C179.844 281.091 179.655 280.992 179.523 280.885C179.168 280.588 178.978 280.167 179.003 279.73C179.094 278.419 183.102 272.01 186.459 266.863C186.501 266.805 188.596 263.555 188.835 253.352C188.926 249.434 189.214 246.836 189.495 244.32C189.99 239.866 190.46 235.66 189.693 224.632C189.354 219.708 184.735 211.963 182.401 208.325C181.972 207.649 181.618 207.121 181.378 206.775C178.698 206.618 167.158 206.073 163.719 206.816ZM411.71 117.842C412.559 118.04 413.442 118.131 414.415 118.123C414.754 116.638 414.803 115.409 414.572 114.279C414.481 113.834 414.333 113.355 414.135 112.877C413.978 112.555 413.805 112.225 413.599 111.961C413.071 111.227 412.403 110.666 411.693 110.32C411.017 109.982 410.283 109.858 409.615 109.957C408.881 110.064 408.163 110.402 407.685 110.864C407.545 111.004 407.413 111.178 407.264 111.4V111.557L407.099 111.722C406.992 112.036 406.926 112.299 406.893 112.563C406.835 113.24 407.017 114.081 407.404 114.823C408.089 116.234 409.697 117.356 411.71 117.842ZM311.857 179.63C311.766 182.805 311.651 185.989 311.84 189.123C311.898 191.128 313.012 192.72 314.356 192.992C319.454 193.685 326.077 192.761 329.327 191.482C331.018 190.839 331.867 189.379 332.247 188.125C332.395 187.845 332.436 187.432 332.486 187.028C332.964 183.746 333.385 180.619 333.608 176.281C333.542 174.268 333.583 170.062 333.558 168.173C333.641 164.37 333.418 160.84 333.855 156.873C333.88 155.652 334.02 154.423 334.144 153.062C334.267 152.518 334.746 152.246 335.092 152.782C335.323 152.914 335.562 153.178 335.793 153.45C336.61 154.522 337.072 155.322 337.748 156.914C339.456 159.735 348.875 186.995 349.947 187.284C350.368 187.589 350.797 187.754 351.374 187.779C351.605 187.804 363.87 186.946 368.349 184.661C368.349 184.661 368.349 184.661 368.465 184.636C370.411 183.135 370.692 181.205 370.873 179.836C371.137 177.205 373.545 162.795 372.836 147.75C372.828 138.521 371.178 126.8 370.461 122.288C370.221 121.356 370.131 120.548 369.9 119.723C369.471 118.197 368.695 116.819 367.574 115.483C366.708 114.304 365.561 113.504 364.25 113.248C361.635 112.613 355.507 111.45 353.131 111.648C350.648 111.928 350.351 114.741 350.995 118.321C352.677 126.618 353.824 146.909 353.634 147.528C353.651 148.534 353.651 151.561 353.75 152.435C353.832 155.454 353.106 156.106 352.199 153.846C347.085 141.927 335.76 118.717 334.531 116.028C333.756 114.065 332.428 110.551 329.632 109.223C328.056 108.464 326.564 107.581 325.038 107.235C322.06 106.278 319.14 105.759 316.237 105.396C313.111 105 312.005 107.738 311.906 109.305C311.568 113.405 312.088 129.472 312.113 132.664C312.764 138.034 312.566 176.603 311.857 179.63ZM250.465 193.973C250.465 194.287 250.457 194.443 250.573 194.757C250.564 196.167 251.134 196.951 252.049 197.405C256.165 199.104 263.019 198.93 267.449 196.893C269.659 195.722 269.502 194.336 269.816 187.655C269.742 182.228 269.775 180.059 270.072 177.559C270.228 176 270.591 175.217 271.07 174.747C271.424 174.574 273.948 172.833 276.192 177.246C279.334 183.96 283.112 192.159 283.764 194.534C285.141 198.551 287.739 197.141 289.348 197.025C290.956 196.91 297.464 194.114 299.806 192.282C303.246 189.47 302.726 185.874 301.522 182.401C300.763 180.125 296.062 169.955 293.059 164.107C294.264 163.026 295.484 161.789 296.565 160.576C299.955 156.906 302.512 151.544 303.543 146.224C304.681 140.31 305.176 135.79 303.477 128.482C302.462 124.02 299.724 118.675 297.315 115.384C292.861 109.289 285.182 104.332 282.048 103.375C276.546 101.676 268.084 100.183 255.167 102.797C251.727 103.218 251.191 108.711 251.076 109.965C250.87 114.353 250.655 118.741 250.548 122.973C250.622 127.666 250.804 188.175 250.465 193.973ZM181.873 169.946C182.211 182.253 183.276 188.092 183.539 190.146C184.092 193.8 184.628 194.435 187.54 195.037C188.835 195.334 196.316 195.78 198.823 195.532C199.854 195.466 200.968 195.112 201.974 194.592C202.989 194.221 203.5 193.346 203.409 191.845C203.211 189.115 202.535 177.766 202.601 175.662C202.585 175.209 202.56 174.598 202.667 174.153C202.873 173.254 203.327 172.668 204.143 172.544C204.968 172.421 212.961 175.431 216.169 176.916C216.763 177.246 217.365 177.724 217.968 178.054C218.809 178.541 219.526 179.333 219.914 180.586C220.401 181.989 221.226 192.695 221.283 193.932C221.333 195.013 221.696 195.648 222.29 196.143C222.644 196.308 222.999 196.637 223.345 196.802C229.952 198.782 234.39 198.106 237.714 197.693C239.999 196.786 241.03 196.481 241.343 193.198C242.217 188.356 240.51 153.062 237.499 136.327C236.683 129.909 233.936 121.801 232.476 117.768C231.338 114.815 227.75 107.705 222.694 104.975C218.479 102.6 208.96 99.0033 198.048 108.736C196.176 110.815 194.295 112.885 192.736 115.368C190.286 119.236 187.309 125.464 184.76 134.603C181.997 144.451 181.873 161.104 181.873 169.946ZM172.924 177.931C176.834 168.759 174.169 159.116 173.188 157.021C171.588 153.582 169.567 150.753 166.73 148.674C165.781 147.981 164.841 147.016 163.9 146.2C162.49 144.971 162.3 142.109 163.876 140.822C164.362 140.393 164.849 139.832 165.336 139.255C167.043 137.539 168.288 135.526 168.874 132.986C170.771 125.043 168.924 120.407 166.969 117.603C165.195 115.318 164.049 114.089 161.797 112.497C159.809 111.582 157.294 108.72 142.711 110.675C132.598 112.506 127.163 114.997 125.431 116.646C124.54 117.257 124.078 118.015 123.839 118.956C120.036 139.601 118.75 155.545 125.827 182.038C126.338 183.259 127.278 184.108 128.491 184.57C131.056 185.618 133.737 186.707 136.368 187.432C140.566 188.538 153.343 191.829 161.748 189.099C168.808 186.434 171.365 181.024 172.924 177.931ZM147.841 155.388C145.581 154.555 143.453 154.011 141.086 153.837C140.97 153.837 140.731 153.829 140.5 153.953C139.915 153.945 139.675 154.316 139.568 154.943C139.42 155.941 140.492 165.27 140.715 166.177C140.772 167.183 141.284 167.851 142.249 168.181C145.128 169.171 147.957 169.418 150.728 168.709C151.545 168.511 154.069 167.777 154.514 164.733C154.646 163.009 153.178 157.178 147.841 155.388ZM195.384 436.281C194.559 440.504 191.252 442.682 187.548 444.167C184.669 445.305 181.535 445.692 178.401 445.519C173.699 445.346 174.31 445.61 174.351 449.091C174.4 450.617 174.615 451.92 173.353 452.835C171.695 454.097 168.957 453.273 168.693 451.186C168.602 450.229 168.693 449.223 168.651 448.225C168.651 445.437 168.742 432.982 168.783 429.584C168.833 427.192 169.616 426.144 172.091 426.227C176.232 426.359 180.108 425.921 184.067 426.227C186.286 426.359 188.422 426.705 190.559 427.315C194.864 428.569 196.217 432.099 195.384 436.281ZM189.767 434.145C189.767 432.231 187.548 431.316 185.412 431.011C182.145 430.615 176.875 431.101 176.133 431.052C175.003 431.011 174.392 431.53 174.392 432.66C174.392 434.747 174.433 436.883 174.433 439.02C174.433 439.844 174.912 440.24 175.695 440.24C176.693 440.282 183.144 440.282 185.841 439.193C188.637 438.112 189.858 436.017 189.767 434.145ZM224.211 447.994C222.034 447.903 214.627 448.513 210.404 448.126C207.962 447.911 208.012 447.078 208.012 444.513C207.921 440.29 207.88 437.98 207.921 433.757C207.921 432.231 207.83 430.277 207.698 428.701C207.566 427.612 206.61 426.35 205.612 426.218C203.525 425.954 202.263 427.002 202.213 429.353C202.172 432.792 202.123 446.691 202.172 450.171C202.172 452.613 203.046 453.479 205.356 453.479C207.707 453.438 222.949 453.652 224.566 453.479C227.049 453.132 227.61 451.211 227.354 450.344C226.999 449.173 226.092 448.126 224.211 447.994ZM259.967 439.325C260.71 442.203 260.801 450.65 260.487 451.87C260.182 453.215 258.656 453.875 257.18 453.57C255.48 453.132 255.134 451.524 255.266 449.643C255.307 448.555 255.357 446.682 254.614 446.468C253.79 445.94 243.512 446.245 240.328 446.204C238.151 446.204 238.324 446.377 238.06 448.596C237.928 449.726 238.019 450.336 237.928 451.474C237.755 453.652 235.841 453.438 234.744 453.388C232.913 453.347 232.476 452.258 232.699 450.386C233.136 446.773 232.922 443.07 233.35 439.457C233.746 435.63 234.786 432.009 237.969 429.567C241.153 427.175 244.593 425.476 248.816 426.383C250.903 426.862 253.344 427.992 254.829 429.435C257.699 432.182 259.011 435.539 259.967 439.325ZM254.26 438.063C253.435 435.885 252.519 434.491 250.729 432.883C249.335 431.621 247.991 431.316 245.855 431.489C241.937 432.231 239.413 434.491 238.803 439.506C238.629 440.768 238.753 440.9 240.064 440.9C244.378 440.941 248.692 440.636 252.651 440.983C255.134 440.851 255.043 440.026 254.26 438.063ZM292.366 444.035C291.055 443.424 290.098 444.125 289.273 444.859L289.059 445.033C288.968 445.123 288.844 445.206 288.754 445.297C287.409 446.517 285.834 447.128 283.83 447.606C281.693 448.126 277.124 448.258 274.938 444.909C273.412 442.467 273.849 439.729 274.022 438.681C274.064 438.549 274.064 438.467 274.113 438.376C274.418 435.984 275.375 434.244 276.992 432.974C280.217 430.532 283.788 430.45 287.137 432.8L287.269 432.932C288.011 433.46 288.795 433.98 289.884 433.939C290.841 433.897 291.665 433.37 292.103 432.545C292.54 431.712 292.498 430.755 292.012 429.971C290.882 428.14 289.224 427.398 286.914 426.746C283.953 425.963 280.992 425.88 277.899 426.573C273.849 427.439 270.979 429.707 269.057 433.493C266.442 438.549 267.754 446.954 271.589 450.435C273.857 452.481 277.074 453.487 280.563 453.487C284.836 453.487 289.496 452.002 293.282 449.091C293.802 448.744 294.066 448.216 294.107 447.565C294.198 446.336 293.414 444.513 292.366 444.035ZM320.32 448.216C316.097 448.175 313.482 448.48 309.3 448.39C305.168 448.258 304.813 447.952 305.341 443.861C305.473 442.946 305.861 442.517 306.826 442.467C309.086 442.335 311.395 442.121 313.705 442.072C316.014 442.03 317.664 442.162 319.932 441.989C320.765 441.898 322.11 441.205 322.373 440.372C322.629 439.506 322.415 438.764 321.763 438.063C320.674 436.76 319.759 436.883 317.796 436.933C314.224 437.147 312.484 437.024 308.863 437.065C307.906 437.197 305.555 437.329 305.423 435.58C305.506 434.491 305.597 434.095 305.638 433.056C305.729 431.753 306.421 431.357 307.593 431.398C311.733 431.448 315.915 431.448 320.056 431.53C321.054 431.53 322.06 431.572 322.976 431.143C324.46 430.4 324.765 428.396 323.545 427.307C322.233 426.177 320.584 426.614 318.884 426.565C313.96 426.524 309.086 426.911 304.161 426.218C303.724 426.128 303.246 426.177 302.809 426.268C301.019 426.614 300.07 427.835 300.07 429.666V439.77C300.07 443.078 300.161 446.394 300.021 449.701C299.889 453.009 301.637 453.619 304.112 453.405C305.811 453.273 308.467 453.405 310.166 453.446C314.307 453.619 314.043 453.273 318.183 453.446C319.272 453.446 322.365 453.528 323.363 453.099C324.625 452.58 325.368 452.143 324.625 449.701C323.941 448.126 322.019 448.258 320.32 448.216Z" fill="#89A83F"/>
<path d="M177.353 51.0318C177.312 49.3821 178.351 48.3759 179.927 48.2934C183.589 48.0707 187.243 47.8975 190.905 48.2934C191.474 48.3759 192.645 48.5491 193.173 48.813C194.567 49.3821 194.435 51.8566 193.347 52.5989C192.472 53.1186 190.864 53.1681 189.816 53.1681H185.329C183.762 53.1681 182.195 53.2093 180.628 53.1681C179.102 53.1186 177.353 52.5577 177.353 51.0318ZM208.053 43.5836C210.404 43.5424 210.709 44.0208 210.445 46.3303C209.925 51.1225 210.008 62.0514 210.14 62.7937C210.313 63.7918 210.668 64.8393 211.839 65.1445C213.06 65.4002 214.107 65.2352 215.105 64.2289C216.153 63.1402 216.326 61.9194 216.367 60.5255C216.541 55.4281 216.277 50.3802 216.805 45.2745C216.978 43.6249 216.978 43.5341 218.594 43.4434C219.856 43.3527 223.345 43.8393 225.127 42.6598C226.958 41.5298 226.826 39.0884 225.3 38.0408C224.253 37.348 222.38 37.4305 221.209 37.4717C218.809 37.5624 209.142 37.4305 206.659 37.4305C204.828 37.4717 203.046 36.9933 201.389 37.9089C199.912 38.6924 199.599 40.5235 200.564 41.9175C202.131 44.2352 206.272 43.5836 208.053 43.5836ZM233.746 65.0538C235.099 65.5734 238.06 64.9218 238.101 63.4866C238.192 61.573 238.275 59.6099 238.365 57.6963C238.456 55.2549 238.58 55.1229 240.889 54.9084C244.246 54.6445 247.595 54.7352 250.952 54.7352C252.956 54.7352 253.088 54.9084 253.179 56.9622C253.22 59.0078 253.088 61.0121 253.394 63.0577C253.649 64.5424 254.218 65.0208 255.612 65.062C258.186 65.1032 259.58 63.6681 259.275 60.7482C258.969 54.9084 258.796 50.4214 259.011 44.4992C259.052 42.9733 259.184 41.934 259.143 40.9277C259.052 39.443 258.4 37.5707 255.662 37.5707C254.268 37.5707 253.616 39.2286 253.526 40.7545C253.484 42.9733 253.088 45.1096 253.179 47.2871C253.22 49.2089 252.041 49.3326 250.259 49.4234C246.779 49.6873 244.428 49.5553 240.939 49.6873C239.413 49.7286 238.761 49.1182 239.017 47.4603C239.24 44.6724 239.19 43.8476 239.454 41.3236C239.801 38.8409 239.149 37.5789 236.839 37.6202C235.008 37.5789 234.53 38.2305 234.052 40.2349C233.92 40.7545 233.309 47.2871 233.136 49.9925C232.88 54.1249 232.352 58.2242 232.443 62.3648C232.484 63.4866 232.616 64.6661 233.746 65.0538ZM270.022 64.9713C271.721 64.8393 274.377 64.9713 276.076 65.0208C280.217 65.194 279.953 64.8475 284.093 65.0208C285.182 65.0208 288.275 65.1032 289.273 64.6743C290.535 64.1547 291.278 63.7175 290.535 61.2761C289.834 59.7089 287.921 59.8409 286.222 59.7914C281.998 59.7501 279.384 60.0553 275.202 59.9646C271.061 59.8326 270.715 59.5274 271.234 55.4363C271.366 54.5208 271.754 54.0919 272.719 54.0424C274.979 53.9104 277.289 53.696 279.598 53.6465C281.908 53.6052 283.566 53.7372 285.826 53.564C286.659 53.4733 288.003 52.7804 288.267 51.9473C288.523 51.0813 288.308 50.3389 287.657 49.6378C286.568 48.3346 285.652 48.4583 283.689 48.5078C280.118 48.7223 278.377 48.5986 274.756 48.6398C273.8 48.7718 271.449 48.9037 271.317 47.1551C271.399 46.0663 271.49 45.6704 271.531 44.6312C271.622 43.3279 272.315 42.932 273.486 42.9733C277.627 43.0228 281.809 43.0228 285.949 43.1052C286.947 43.1052 287.954 43.1547 288.869 42.7176C290.354 41.9752 290.659 39.9709 289.438 38.8822C288.127 37.7521 286.477 38.1893 284.778 38.1398C279.854 38.0903 274.979 38.4862 270.055 37.7934C269.618 37.7027 269.139 37.7521 268.702 37.8429C266.912 38.1893 265.964 39.41 265.964 41.2411V51.3452C265.964 54.6527 266.055 57.9685 265.923 61.2761C265.799 64.5754 267.539 65.1857 270.022 64.9713ZM300.029 53.1681C301.596 53.2093 303.163 53.1681 304.731 53.1681H309.218C310.265 53.1681 311.873 53.1186 312.748 52.5989C313.837 51.8566 313.969 49.3739 312.575 48.813C312.055 48.5491 310.875 48.3759 310.306 48.2934C306.644 47.8975 302.99 48.0707 299.328 48.2934C297.761 48.3759 296.713 49.3821 296.754 51.0318C296.763 52.5577 298.503 53.1186 300.029 53.1681ZM197.735 309.853C198.997 309.374 199.739 308.417 198.997 306.933C198.386 305.844 196.382 305.671 194.905 305.885C193.949 306.058 189.198 306.149 187.721 306.281C186.501 306.372 185.371 306.801 185.371 308.459C185.28 310.372 186.204 310.29 187.598 310.372C189.907 310.546 189.948 310.546 189.907 312.946C189.775 316.954 189.907 321.004 189.561 325.054C189.387 327.1 189.907 328.584 187.251 329.063C185.511 329.318 184.859 330.283 185.511 332.197C186.072 333.632 187.862 333.335 189.643 333.286C192.39 333.195 195.004 333.195 197.264 332.939C198.312 332.807 199.096 332.593 199.054 330.762C199.096 329.277 198.708 329.022 196.662 328.716C195.574 328.461 195.178 328.32 195.227 327.322C195.277 326.671 195.574 316.872 195.623 312.649C195.64 310.587 195.64 310.587 197.735 309.853ZM217.456 328.362C214.759 327.924 212.623 326.836 211.666 325.269C210.924 324.048 210.231 323.784 208.919 323.569C207.872 323.396 206.783 323.743 206.131 324.394C205.562 324.963 205.348 325.656 205.48 326.44C205.702 327.793 206.527 328.667 207.27 329.36C210.404 332.189 214.066 333.583 218.38 333.583C219.469 333.583 220.599 333.492 221.819 333.327C225.696 332.717 228.83 331.059 231.404 328.271C234.282 325.178 233.796 321.087 231.66 318.909C229.705 316.905 227.172 315.857 224.211 315.857H224.038C222.776 315.899 216.326 315.857 214.454 315.725C213.761 315.676 212.837 315.379 212.664 314.158C212.491 312.896 212.837 312.113 213.835 311.634C214.792 311.156 215.576 310.892 216.318 310.801C219.543 310.405 222.892 310.933 226.207 312.286L226.513 312.418C227.164 312.674 227.857 312.979 228.649 312.896C229.87 312.764 230.48 311.981 230.917 311.288C231.181 310.851 231.181 310.29 230.958 309.679C230.703 309.028 229.911 307.807 227.478 307.155C224.995 306.322 222.685 305.852 220.467 305.671C216.763 305.366 213.324 306.017 210.189 307.675C207.534 309.069 206.222 311.156 206.313 313.771C206.445 317.037 209.233 320.039 212.54 320.476C214.544 320.74 216.681 321.004 218.809 320.914C220.599 320.864 222.43 320.914 224.17 321.004C225.696 321.045 226.694 321.788 227.131 323.182C227.527 324.402 227.09 325.442 225.737 326.621C223.989 328.147 220.772 328.84 217.456 328.362ZM274.938 329.888C274.938 330.284 274.938 330.671 275.02 331.018C275.416 333.459 276.546 333.459 278.897 333.327C280.86 333.195 281.033 330.671 280.819 327.883C280.25 321.788 280.473 315.684 280.341 309.589C280.341 309.242 280.341 308.846 280.291 308.459C279.895 306.232 277.726 305.234 275.895 306.537C273.503 308.236 270.888 309.671 268.488 311.329C266.525 312.674 266.484 312.632 264.702 310.933C263.308 309.539 261.955 308.145 260.297 307.056C258.73 306.058 257.072 305.795 255.373 306.619C253.715 307.452 253.501 308.97 253.501 310.669C253.501 315.024 253.328 319.338 253.196 323.693C253.154 325.871 253.154 328.089 253.105 330.267C253.064 331.611 253.451 332.923 254.845 333.146C255.975 333.36 257.237 333.319 258.029 332.189C258.376 331.71 258.771 330.663 258.813 330.011C258.895 329.186 259.027 328.576 259.068 327.57C259.159 323.784 259.159 320.031 259.2 316.286C259.2 315.544 259.068 314.109 259.506 313.977C259.943 313.845 260.677 314.892 261.246 315.371C262.071 316.113 262.854 316.897 263.778 317.598C265.477 318.86 266.912 318.769 268.653 317.466C269.964 316.468 271.309 315.461 272.661 314.505C273.057 314.241 273.486 313.721 274.055 314.026C274.616 314.331 274.493 317.161 274.451 317.639C274.633 323.264 274.855 325.095 274.938 329.888ZM311.873 309.721C312.443 308.937 313.309 308.154 312.525 307.155C311.832 306.322 310.562 305.671 309.168 306.24C307.642 306.768 305.77 308.549 304.599 309.638C303.031 311.073 301.769 311.948 300.029 313.465C299.204 314.249 298.421 314.249 297.637 313.424C296.111 311.807 291.368 307.279 290.362 306.537C289.141 305.671 287.178 305.926 286.395 306.883C285.611 307.84 285.702 308.797 286.791 310.067C287.31 310.677 292.276 315.816 294.28 317.647C295.897 319.132 296.416 319.561 296.367 321.697C296.276 323.833 296.062 327.273 295.888 329.277C295.839 330.234 295.756 331.933 296.449 332.544C297.101 333.41 299.584 333.937 300.936 332.453C302.462 330.712 302.025 325.31 301.984 321.037C301.943 319.734 302.025 319.124 303.114 318.159C305.597 316.039 311.568 310.199 311.873 309.721ZM159.166 349.32C157.285 348.141 152.056 348.034 148.113 348.339C144.459 348.636 143.874 350.112 143.676 351.399C143.28 356.826 143.676 360.876 143.676 364.629C143.676 365.809 143.775 379.039 143.775 379.237C143.973 380.416 142.884 380.218 142.793 380.218C140.426 379.921 138.842 379.435 137.069 378.643C136.376 378.346 135.692 378.049 135.296 376.671C134.9 375.187 134.405 367.788 134.405 365.223C134.306 362.559 134.405 359.796 134.306 357.131C134.306 355.449 134.405 353.675 134.603 352.001C134.702 350.813 134.009 349.436 133.027 348.941C131.543 348.248 122.56 348.248 120.688 348.545C119.904 348.644 118.618 349.329 118.222 350.12C117.042 352.001 116.844 358.905 116.737 360.876C116.638 362.847 116.737 365.718 116.737 367.689C116.836 372.325 117.331 395.428 118.816 404.41C118.816 405.103 119.014 405.788 119.113 406.489C119.311 407.38 119.706 407.866 120.597 407.965C124.251 408.955 129.481 408.955 132.838 408.262C134.413 407.767 134.413 407.767 134.809 406.876C135.106 405.986 135.403 402.728 135.205 397.309C135.106 394.743 135.106 393.16 136.492 393.457C137.473 393.655 140.731 394.941 141.523 395.23C143.395 395.923 144.088 396.121 143.791 398.983C143.593 401.35 143.692 403.627 143.89 405.895C143.989 407.38 144.674 408.262 146.06 408.559C147.239 408.955 148.526 409.153 149.705 409.252C152.171 409.351 156.617 409.945 159.776 409.054C160.56 408.658 161.154 408.27 161.352 407.479C162.729 403.132 160.857 357.824 160.758 355.754C160.741 355.737 161.137 350.607 159.166 349.32ZM202.502 408.147C202.007 407.85 201.719 407.454 201.719 406.769C201.719 405.977 201.323 399.164 200.927 398.282C200.63 397.49 200.036 396.995 199.351 396.706C198.856 396.508 198.361 396.211 197.867 396.014C195.202 395.123 188.587 393.349 187.894 393.448C187.202 393.547 186.806 393.943 186.616 394.537C186.517 394.834 186.517 395.23 186.517 395.519C186.418 396.904 186.517 404.303 186.517 406.085C186.517 407.066 186.022 407.66 185.14 407.957C184.249 408.353 183.259 408.65 182.376 408.749C180.207 409.046 173.79 409.244 172.701 409.145C170.235 408.947 169.839 408.551 169.641 406.085C169.542 404.707 169.146 400.756 169.344 392.368C169.74 386.347 169.938 374.997 171.909 368.382C173.79 362.262 175.959 358.212 177.832 355.746C179.019 354.17 180.496 352.884 181.981 351.597C190.765 345.774 199.261 348.537 202.906 350.112C207.352 351.993 210.511 356.529 211.493 358.402C212.779 360.967 215.138 366.097 215.839 370.147C218.405 380.705 219.683 402.917 218.9 405.977C218.603 408.056 217.712 408.246 215.74 408.84C212.878 409.136 209.026 409.623 203.401 408.543C203.088 408.452 202.799 408.254 202.502 408.147ZM200.72 377.752C200.72 375.187 200.523 372.622 199.541 370.048C198.65 367.978 197.174 366.79 194.996 366.204C190.163 365.116 187.391 368.374 186.806 371.236C186.41 373.116 186.41 374.989 186.41 376.96C186.41 377.752 186.806 378.445 187.499 378.841C192.035 381.01 198.056 382.198 198.65 382.198C199.83 382.297 200.333 382 200.621 380.911C200.621 380.515 200.72 378.437 200.72 377.752ZM269.923 378.049C269.032 380.416 267.943 382.684 266.467 384.664C265.18 386.437 264.199 387.526 262.021 389.398C259.555 391.172 256.693 394.529 246.523 395.123C245.632 395.123 244.84 395.123 244.057 395.024C243.265 395.024 242.869 395.321 242.869 396.113C242.77 397.201 242.869 397.795 242.968 399.569C242.968 402.431 242.869 405.887 242.671 406.481C242.275 407.66 241.491 408.452 240.205 408.65C238.918 408.848 233.689 409.541 227.766 407.957C226.975 407.858 226.587 407.363 226.587 406.579V404.608C226.587 402.34 226.389 391.279 226.389 390.594C226.488 388.821 226.389 376.878 226.389 375.294C226.488 373.323 226.488 359.408 226.488 357.23C226.488 356.142 226.587 352.1 226.587 351.011C226.587 350.12 226.884 348.644 228.36 348.446C231.717 347.852 234.777 347.852 237.442 348.347C239.223 348.743 239.809 348.842 240.205 350.219C240.403 350.714 240.601 350.813 241.293 350.516C242.382 350.021 243.463 349.527 244.551 349.032C245.343 348.636 246.234 348.24 247.216 348.141C251.167 347.547 255.117 347.646 258.961 348.834C261.13 349.527 263.795 350.516 266.467 353.576C267.844 355.449 269.23 357.23 270.113 359.4C270.707 360.579 271.103 361.866 271.3 363.153C271.795 366.213 271.993 368.976 271.498 372.432C270.913 375.278 270.517 376.168 269.923 378.049ZM256.008 366.493C254.821 364.324 251.76 363.631 249.888 363.631C248.008 363.631 246.135 363.73 244.461 364.621C243.966 364.819 243.471 365.116 243.075 365.404C242.481 365.899 242.291 366.394 242.291 367.178C242.291 367.97 242.39 374.09 242.588 376.259C242.786 377.546 242.885 378.338 243.083 380.012C243.083 380.903 243.479 381.2 244.37 381.002C245.855 380.804 247.43 380.408 248.816 379.517C250.391 378.428 251.876 377.15 253.055 375.566C253.946 374.477 255.423 373.1 256.313 370.139C256.594 368.869 256.396 367.681 256.008 366.493ZM313.655 389.398C311.189 391.172 308.327 394.529 298.157 395.123C297.266 395.123 296.474 395.123 295.69 395.024C294.899 395.024 294.503 395.321 294.503 396.113C294.404 397.201 294.503 397.795 294.602 399.569C294.602 402.431 294.503 405.887 294.305 406.481C293.909 407.66 293.125 408.452 291.839 408.65C290.552 408.848 285.322 409.541 279.4 407.957C278.608 407.858 278.221 407.363 278.221 406.579V404.608C278.221 402.34 278.023 391.279 278.023 390.594C278.122 388.821 278.023 376.878 278.023 375.294C278.122 373.323 278.122 359.408 278.122 357.23C278.122 356.142 278.221 352.1 278.221 351.011C278.221 350.12 278.518 348.644 279.994 348.446C283.351 347.852 286.411 347.852 289.075 348.347C290.857 348.743 291.443 348.842 291.839 350.219C292.036 350.714 292.234 350.813 292.927 350.516C294.016 350.021 295.097 349.527 296.185 349.032C296.977 348.636 297.868 348.24 298.85 348.141C302.8 347.547 306.751 347.646 310.595 348.834C312.764 349.527 315.428 350.516 318.101 353.576C319.478 355.449 320.864 357.23 321.747 359.4C322.34 360.579 322.736 361.866 322.934 363.153C323.429 366.213 323.627 368.976 323.132 372.432C322.538 375.294 322.143 376.185 321.557 378.057C320.666 380.424 319.577 382.693 318.101 384.672C316.814 386.437 315.824 387.526 313.655 389.398ZM307.634 366.493C306.446 364.324 303.386 363.631 301.514 363.631C299.633 363.631 297.761 363.73 296.086 364.621C295.591 364.819 295.097 365.116 294.701 365.404C294.107 365.899 293.917 366.394 293.917 367.178C293.917 367.97 294.016 374.09 294.214 376.259C294.412 377.546 294.511 378.338 294.709 380.012C294.709 380.903 295.105 381.2 295.996 381.002C297.48 380.804 299.056 380.408 300.441 379.517C302.017 378.428 303.502 377.15 304.681 375.566C305.572 374.477 307.048 373.1 307.939 370.139C308.219 368.869 308.03 367.681 307.634 366.493ZM373.471 349.617C373.075 348.529 372.382 347.935 371.393 347.539C369.916 347.044 363.4 347.341 362.212 347.737C361.033 348.133 358.369 348.034 358.369 350.797C358.27 350.995 358.369 360.274 358.27 364.225C358.171 365.314 358.171 366.394 358.171 367.483C358.171 368.267 357.775 368.86 357.181 369.157C356.587 369.454 355.894 369.553 355.3 369.652C353.428 369.85 351.655 370.048 348.883 369.058C346.318 367.871 345.328 364.316 345.427 361.264C345.526 359.581 345.724 357.222 345.823 355.639C346.12 353.865 346.417 352.38 346.318 350.706C346.219 348.825 343.852 348.042 342.169 347.844C339.604 347.547 334.375 347.25 331.702 348.339C330.811 348.735 330.217 349.428 330.02 350.409C329.921 350.805 329.822 351.3 329.723 351.795C329.327 354.855 328.939 357.816 329.228 360.975C329.426 363.144 330.712 371.046 336.527 376.375C336.923 376.869 338.606 377.76 339.192 378.057C340.767 378.948 341.361 378.948 343.035 379.633C343.53 379.831 350.83 381.315 356.661 380.028C357.75 379.732 358.039 380.029 358.039 381.117V381.893C358.039 384.062 357.94 386.239 357.445 388.31C357.148 389.893 356.661 391.37 355.968 392.755C354.583 395.519 352.018 396.508 350.64 396.995C348.273 397.787 346.293 396.014 346.689 393.539C346.887 392.558 347.085 391.568 347.283 390.578C347.679 387.914 346.293 386.231 344.223 385.151C341.856 383.864 337.905 383.963 335.736 384.359C332.873 384.953 330.605 386.33 329.516 389.192C328.923 390.281 328.626 393.737 329.022 395.807C329.417 398.175 330.11 399.956 331.488 401.829C334.053 404.988 340.074 409.334 348.966 409.334C354.294 409.334 359.037 407.759 362.88 404.988C369.99 399.956 371.962 393.044 372.358 391.073C372.853 388.508 373.339 385.942 373.644 383.468C374.626 374.486 374.535 361.75 373.941 352.273C373.966 351.399 373.867 350.508 373.471 349.617ZM336.569 441.057H372.605V436.001H336.569V441.057ZM118.395 441.057H154.431V436.001H118.395V441.057Z" fill="#9F6038"/>
<path d="M108.241 326.085C101.428 326.811 93.6091 323.908 87.9426 318.868C90.2769 314.447 95.3495 312.005 101.791 311.799C102.377 311.783 102.963 311.799 103.54 311.816C99.7128 309.292 96.0259 306.57 92.5204 303.625C89.7242 305.984 85.7486 307.213 80.8244 306.43C74.1351 305.382 67.4128 300.606 63.2887 294.288C66.6952 290.643 72.238 289.603 78.4819 291.063C79.0345 291.195 79.5789 291.36 80.1233 291.525C77.1127 288.127 74.3001 284.564 71.7019 280.835C68.3943 282.37 64.2455 282.518 59.709 280.481C53.5228 277.734 48.2687 271.35 45.9179 264.133C50.1658 261.502 55.7911 261.972 61.4493 265.032C61.9442 265.304 62.3814 265.659 62.868 265.956C60.839 261.873 59.0574 257.65 57.5067 253.319C53.9187 253.913 49.8853 252.94 46.0417 249.748C40.7793 245.401 37.3728 237.722 37.0264 229.952C41.8186 228.525 47.1139 230.554 51.7742 235.107C52.1701 235.495 52.4918 235.957 52.8712 236.369C52.2773 233.276 51.7989 230.142 51.4608 226.966C49.6626 223.642 48.5244 219.551 48.5079 215.023C48.4584 207.171 51.7577 200.234 56.2612 196.539C59.3543 201.52 61.1112 208.004 61.1524 214.949C61.1607 218.916 60.5503 222.611 59.4945 225.976C59.8079 228.929 60.2534 231.841 60.7977 234.72C60.9874 234.274 61.1689 233.812 61.3916 233.383C64.2867 227.874 69.2769 225.457 74.1928 225.498C75.3641 230.925 74.9764 236.666 72.5927 242.003C70.8606 245.838 68.2706 248.849 65.128 250.606C66.5467 254.59 68.1799 258.466 70.0357 262.227C70.1017 261.757 70.1512 261.287 70.2584 260.825C71.6276 254.837 75.8012 251.233 80.544 249.946C83.0844 254.73 84.1814 260.297 83.2659 266.022C82.5895 270.129 80.8821 273.692 78.3252 276.208C80.7007 279.615 83.2741 282.881 86.0125 285.991C85.9631 285.553 85.8888 285.124 85.8806 284.687C85.6496 278.559 88.7345 273.998 92.974 271.507C96.6527 275.433 99.1602 280.514 99.7706 286.287C100.191 290.42 99.4901 294.305 97.692 297.406C100.884 300.087 104.233 302.569 107.714 304.879C107.557 304.483 107.375 304.095 107.252 303.691C105.388 297.81 107.161 292.589 110.6 289.084C115.203 291.937 119.014 296.21 121.191 301.654C122.734 305.555 123.121 309.498 122.222 312.97C133.027 317.952 144.773 321.227 157.112 322.415C159.339 322.629 160.972 324.609 160.758 326.827C160.56 328.922 158.795 330.49 156.733 330.49C156.609 330.49 156.477 330.481 156.345 330.473C143.098 329.203 130.495 325.689 118.89 320.344C116.811 323.338 113.256 325.565 108.241 326.085ZM444.942 249.748C450.204 245.401 453.611 237.722 453.957 229.952C449.165 228.525 443.87 230.554 439.21 235.107C438.814 235.495 438.492 235.957 438.112 236.369C438.706 233.276 439.185 230.142 439.523 226.966C441.321 223.642 442.459 219.551 442.476 215.023C442.525 207.171 439.226 200.234 434.722 196.539C431.629 201.52 429.873 208.004 429.831 214.949C429.823 218.916 430.433 222.611 431.489 225.976C431.176 228.929 430.73 231.841 430.178 234.72C429.988 234.266 429.807 233.812 429.584 233.383C426.689 227.874 421.699 225.457 416.783 225.498C415.611 230.925 415.999 236.666 418.383 242.003C420.115 245.838 422.705 248.849 425.847 250.606C424.429 254.59 422.796 258.466 420.94 262.219C420.874 261.749 420.824 261.279 420.717 260.817C419.348 254.829 415.174 251.224 410.431 249.938C407.891 254.722 406.794 260.289 407.71 266.013C408.386 270.121 410.093 273.684 412.65 276.2C410.275 279.606 407.701 282.873 404.963 285.982C405.012 285.545 405.087 285.116 405.095 284.679C405.326 278.551 402.241 273.989 398.001 271.498C394.323 275.425 391.815 280.505 391.205 286.279C390.784 290.412 391.485 294.296 393.283 297.39C390.1 300.07 386.743 302.553 383.262 304.862C383.419 304.467 383.6 304.079 383.724 303.675C385.588 297.794 383.806 292.573 380.375 289.067C375.772 291.921 371.962 296.194 369.784 301.637C368.242 305.539 367.854 309.481 368.753 312.954C357.948 317.936 346.203 321.21 333.863 322.398C331.636 322.613 330.003 324.592 330.218 326.811C330.416 328.906 332.181 330.473 334.243 330.473C334.366 330.473 334.498 330.465 334.63 330.457C347.877 329.186 360.48 325.673 372.085 320.328C374.164 323.338 377.719 325.565 382.734 326.077C389.547 326.803 397.366 323.899 403.033 318.86C400.699 314.439 395.626 311.997 389.184 311.791C388.598 311.774 388.013 311.791 387.435 311.807C391.271 309.283 394.95 306.562 398.455 303.617C401.251 305.976 405.227 307.205 410.151 306.421C416.84 305.374 423.563 300.598 427.687 294.28C424.28 290.634 418.737 289.595 412.494 291.055C411.941 291.187 411.397 291.352 410.852 291.517C413.863 288.119 416.675 284.555 419.274 280.827C422.581 282.361 426.73 282.51 431.266 280.472C437.453 277.726 442.707 271.342 445.057 264.124C440.81 261.493 435.184 261.963 429.526 265.024C429.031 265.296 428.586 265.65 428.107 265.947C430.137 261.864 431.918 257.641 433.469 253.303C437.073 253.905 441.107 252.94 444.942 249.748Z" fill="#D69529"/>
</svg>
